G04*
G04 #@! TF.GenerationSoftware,Altium Limited,Altium Designer,20.2.6 (244)*
G04*
G04 Layer_Physical_Order=2*
G04 Layer_Color=16711680*
%FSLAX44Y44*%
%MOMM*%
G71*
G04*
G04 #@! TF.SameCoordinates,95B47CC1-6D59-4A24-9DA9-F39AA99DDD39*
G04*
G04*
G04 #@! TF.FilePolarity,Positive*
G04*
G01*
G75*
%ADD28C,0.3000*%
%ADD30C,1.0000*%
%ADD31C,1.8000*%
%ADD32C,0.9500*%
%ADD33C,2.5000*%
%ADD34C,2.0000*%
%ADD35C,1.1500*%
%ADD36O,2.4000X1.2000*%
%ADD37C,1.3000*%
%ADD38R,1.3000X1.3000*%
%ADD39C,1.4000*%
%ADD40R,0.9500X0.9500*%
%ADD41C,5.0000*%
%ADD42C,0.6000*%
D28*
X555400Y615400D02*
X571444Y631444D01*
X555400Y590000D02*
Y615400D01*
X580800Y564600D02*
Y590000D01*
X210820Y331480D02*
X324600Y217700D01*
X210820Y331480D02*
Y342900D01*
X194520Y359200D02*
X210820Y342900D01*
X180000Y359200D02*
X194520D01*
X490000Y406400D02*
Y480000D01*
Y406400D02*
X526400Y370000D01*
X600800D01*
X477000Y243100D02*
X558800Y161300D01*
Y30226D02*
Y161300D01*
Y30226D02*
X571500Y17526D01*
X591726D01*
X609200Y35000D01*
X645800Y368300D02*
Y500000D01*
X622200Y344700D02*
X645800Y368300D01*
X477000Y344700D02*
X622200D01*
X464200Y535000D02*
X540800D01*
X384200Y615000D02*
X464200Y535000D01*
X695060Y530860D02*
X750000Y585800D01*
X614540Y530860D02*
X695060D01*
X580800Y564600D02*
X614540Y530860D01*
X571444Y631444D02*
X749300D01*
X763270Y617474D01*
Y411730D02*
Y617474D01*
Y411730D02*
X785000Y390000D01*
X517144Y312944D02*
X529200Y325000D01*
X517144Y283244D02*
Y312944D01*
X477000Y243100D02*
X517144Y283244D01*
X336770Y52070D02*
X477000Y192300D01*
X158370Y52070D02*
X336770D01*
X144200Y37900D02*
X158370Y52070D01*
X169600Y37900D02*
X185148Y22352D01*
X332452D01*
X477000Y166900D01*
X225000Y359200D02*
X411699D01*
X477000Y293900D01*
X421188Y420000D02*
X460000D01*
X416306Y424883D02*
X421188Y420000D01*
X377757Y424883D02*
X416306D01*
D30*
X585000Y70000D02*
X763460Y248460D01*
Y250000D01*
X583800Y35000D02*
X585000Y36200D01*
Y70000D01*
X630800Y325000D02*
X665360D01*
X676910Y336550D01*
X763460Y250000D02*
X785000D01*
X676910Y336550D02*
X763460Y250000D01*
X530000Y590000D02*
X602856Y517144D01*
X732144D01*
X750000Y535000D01*
X75940Y468890D02*
X85344D01*
X100844Y453390D01*
X150114D01*
X159258Y444246D01*
X282446D01*
X296670Y458470D01*
X460400Y615000D02*
Y626212D01*
X457200Y629412D02*
X460400Y626212D01*
X453136Y629412D02*
X457200D01*
X449072Y633476D02*
X453136Y629412D01*
X317500Y633476D02*
X449072D01*
X310583Y626559D02*
X317500Y633476D01*
X310583Y492057D02*
Y626559D01*
X505000Y615000D02*
X530000Y590000D01*
X460400Y615000D02*
X505000D01*
D31*
X580800Y590000D02*
D03*
X555400D02*
D03*
X606200D02*
D03*
X530000D02*
D03*
X350000Y179600D02*
D03*
Y154200D02*
D03*
X464300Y39900D02*
D03*
X324600Y217700D02*
D03*
Y192300D02*
D03*
Y166900D02*
D03*
Y141500D02*
D03*
Y116100D02*
D03*
Y90700D02*
D03*
Y65300D02*
D03*
Y243100D02*
D03*
Y293900D02*
D03*
Y319300D02*
D03*
Y344700D02*
D03*
X477000Y243100D02*
D03*
Y217700D02*
D03*
Y192300D02*
D03*
Y166900D02*
D03*
Y141500D02*
D03*
Y116100D02*
D03*
Y90700D02*
D03*
Y65300D02*
D03*
Y268500D02*
D03*
Y293900D02*
D03*
Y319300D02*
D03*
Y344700D02*
D03*
X324600Y268500D02*
D03*
X118800Y330000D02*
D03*
X195000D02*
D03*
X169600D02*
D03*
X144200D02*
D03*
X169600Y37900D02*
D03*
X118800D02*
D03*
X144200D02*
D03*
X195000D02*
D03*
X220400D02*
D03*
X750000Y611200D02*
D03*
Y585800D02*
D03*
Y560400D02*
D03*
Y535000D02*
D03*
Y509600D02*
D03*
Y484200D02*
D03*
X634600Y35000D02*
D03*
X583800D02*
D03*
X609200D02*
D03*
X660000D02*
D03*
X333400Y615000D02*
D03*
X358800D02*
D03*
X384200D02*
D03*
X409600D02*
D03*
X435000D02*
D03*
X460400D02*
D03*
X108000D02*
D03*
X133400D02*
D03*
X158800D02*
D03*
X184200D02*
D03*
X209600D02*
D03*
X235000D02*
D03*
D32*
X180000Y510000D02*
D03*
X192700D02*
D03*
X477300Y480000D02*
D03*
X490000D02*
D03*
D33*
X785000Y360000D02*
D03*
Y390000D02*
D03*
Y420000D02*
D03*
Y280000D02*
D03*
Y250000D02*
D03*
Y220000D02*
D03*
D34*
X391670Y458470D02*
D03*
X377757Y492057D02*
D03*
X310583D02*
D03*
X296670Y458470D02*
D03*
X310583Y424883D02*
D03*
X377757D02*
D03*
D35*
X749500Y133800D02*
D03*
Y117800D02*
D03*
Y101800D02*
D03*
X761500Y125800D02*
D03*
Y109800D02*
D03*
D36*
X800000Y155000D02*
D03*
Y80600D02*
D03*
X752500Y155000D02*
D03*
Y80600D02*
D03*
D37*
X631190Y440490D02*
D03*
X676910Y361950D02*
D03*
D38*
X631190Y415490D02*
D03*
X676910Y336550D02*
D03*
D39*
X540800Y535000D02*
D03*
X439200D02*
D03*
X75940Y468890D02*
D03*
X106940D02*
D03*
Y437890D02*
D03*
X75940D02*
D03*
X600800Y370000D02*
D03*
X499200D02*
D03*
X630800Y325000D02*
D03*
X529200D02*
D03*
X561600Y420000D02*
D03*
X460000D02*
D03*
X180000Y460800D02*
D03*
Y359200D02*
D03*
X225000Y460800D02*
D03*
Y359200D02*
D03*
X645800Y500000D02*
D03*
X544200D02*
D03*
D40*
X205400Y510000D02*
D03*
X502700Y480000D02*
D03*
D41*
X35000Y570000D02*
D03*
X660000Y560000D02*
D03*
X810000Y35000D02*
D03*
X35000D02*
D03*
D42*
X106940Y468890D02*
X148050Y510000D01*
X180000D01*
X391670Y458470D02*
X455770D01*
X477300Y480000D01*
M02*
