G04*
G04 #@! TF.GenerationSoftware,Altium Limited,Altium Designer,20.2.6 (244)*
G04*
G04 Layer_Color=128*
%FSLAX44Y44*%
%MOMM*%
G71*
G04*
G04 #@! TF.SameCoordinates,95B47CC1-6D59-4A24-9DA9-F39AA99DDD39*
G04*
G04*
G04 #@! TF.FilePolarity,Positive*
G04*
G01*
G75*
%ADD44C,0.0508*%
D44*
X575800Y590000D02*
X585800D01*
X580800Y585000D02*
Y595000D01*
X550400Y590000D02*
X560400D01*
X555400Y585000D02*
Y595000D01*
X601200Y590000D02*
X611200D01*
X606200Y585000D02*
Y595000D01*
X525000Y590000D02*
X535000D01*
X530000Y585000D02*
Y595000D01*
X176500Y510000D02*
X183500D01*
X180000Y506500D02*
Y513500D01*
X189200Y510000D02*
X196200D01*
X192700Y506500D02*
Y513500D01*
X345000Y179600D02*
X355000D01*
X350000Y174600D02*
Y184600D01*
X345000Y154200D02*
X355000D01*
X350000Y149200D02*
Y159200D01*
X459300Y39900D02*
X469300D01*
X464300Y34900D02*
Y44900D01*
X319600Y217700D02*
X329600D01*
X324600Y212700D02*
Y222700D01*
X319600Y192300D02*
X329600D01*
X324600Y187300D02*
Y197300D01*
X319600Y166900D02*
X329600D01*
X324600Y161900D02*
Y171900D01*
X319600Y141500D02*
X329600D01*
X324600Y136500D02*
Y146500D01*
X319600Y116100D02*
X329600D01*
X324600Y111100D02*
Y121100D01*
X319600Y90700D02*
X329600D01*
X324600Y85700D02*
Y95700D01*
X319600Y65300D02*
X329600D01*
X324600Y60300D02*
Y70300D01*
X319600Y243100D02*
X329600D01*
X324600Y238100D02*
Y248100D01*
X319600Y293900D02*
X329600D01*
X324600Y288900D02*
Y298900D01*
X319600Y319300D02*
X329600D01*
X324600Y314300D02*
Y324300D01*
X319600Y344700D02*
X329600D01*
X324600Y339700D02*
Y349700D01*
X472000Y243100D02*
X482000D01*
X477000Y238100D02*
Y248100D01*
X472000Y217700D02*
X482000D01*
X477000Y212700D02*
Y222700D01*
X472000Y192300D02*
X482000D01*
X477000Y187300D02*
Y197300D01*
X472000Y166900D02*
X482000D01*
X477000Y161900D02*
Y171900D01*
X472000Y141500D02*
X482000D01*
X477000Y136500D02*
Y146500D01*
X472000Y116100D02*
X482000D01*
X477000Y111100D02*
Y121100D01*
X472000Y90700D02*
X482000D01*
X477000Y85700D02*
Y95700D01*
X472000Y65300D02*
X482000D01*
X477000Y60300D02*
Y70300D01*
X472000Y268500D02*
X482000D01*
X477000Y263500D02*
Y273500D01*
X472000Y293900D02*
X482000D01*
X477000Y288900D02*
Y298900D01*
X472000Y319300D02*
X482000D01*
X477000Y314300D02*
Y324300D01*
X472000Y344700D02*
X482000D01*
X477000Y339700D02*
Y349700D01*
X319600Y268500D02*
X329600D01*
X324600Y263500D02*
Y273500D01*
X113800Y330000D02*
X123800D01*
X118800Y325000D02*
Y335000D01*
X190000Y330000D02*
X200000D01*
X195000Y325000D02*
Y335000D01*
X164600Y330000D02*
X174600D01*
X169600Y325000D02*
Y335000D01*
X139200Y330000D02*
X149200D01*
X144200Y325000D02*
Y335000D01*
X164600Y37900D02*
X174600D01*
X169600Y32900D02*
Y42900D01*
X113800Y37900D02*
X123800D01*
X118800Y32900D02*
Y42900D01*
X139200Y37900D02*
X149200D01*
X144200Y32900D02*
Y42900D01*
X190000Y37900D02*
X200000D01*
X195000Y32900D02*
Y42900D01*
X215400Y37900D02*
X225400D01*
X220400Y32900D02*
Y42900D01*
X776250Y360000D02*
X793750D01*
X785000Y351250D02*
Y368750D01*
X776250Y390000D02*
X793750D01*
X785000Y381250D02*
Y398750D01*
X776250Y420000D02*
X793750D01*
X785000Y411250D02*
Y428750D01*
X385670Y458470D02*
X397670D01*
X391670Y452470D02*
Y464470D01*
X371757Y492057D02*
X383757D01*
X377757Y486057D02*
Y498057D01*
X304583Y492057D02*
X316583D01*
X310583Y486057D02*
Y498057D01*
X290670Y458470D02*
X302670D01*
X296670Y452470D02*
Y464470D01*
X304583Y424883D02*
X316583D01*
X310583Y418883D02*
Y430883D01*
X371757Y424883D02*
X383757D01*
X377757Y418883D02*
Y430883D01*
X746000Y133800D02*
X753000D01*
X749500Y130300D02*
Y137300D01*
X746000Y117800D02*
X753000D01*
X749500Y114300D02*
Y121300D01*
X746000Y101800D02*
X753000D01*
X749500Y98300D02*
Y105300D01*
X758000Y125800D02*
X765000D01*
X761500Y122300D02*
Y129300D01*
X758000Y109800D02*
X765000D01*
X761500Y106300D02*
Y113300D01*
X796000Y155000D02*
X804000D01*
X800000Y151000D02*
Y159000D01*
X796000Y80600D02*
X804000D01*
X800000Y76600D02*
Y84600D01*
X748500Y155000D02*
X756500D01*
X752500Y151000D02*
Y159000D01*
X748500Y80600D02*
X756500D01*
X752500Y76600D02*
Y84600D01*
X745000Y611200D02*
X755000D01*
X750000Y606200D02*
Y616200D01*
X745000Y585800D02*
X755000D01*
X750000Y580800D02*
Y590800D01*
X745000Y560400D02*
X755000D01*
X750000Y555400D02*
Y565400D01*
X745000Y535000D02*
X755000D01*
X750000Y530000D02*
Y540000D01*
X745000Y509600D02*
X755000D01*
X750000Y504600D02*
Y514600D01*
X745000Y484200D02*
X755000D01*
X750000Y479200D02*
Y489200D01*
X627190Y440490D02*
X635190D01*
X631190Y436490D02*
Y444490D01*
X627190Y415490D02*
X635190D01*
X631190Y411490D02*
Y419490D01*
X536550Y535000D02*
X545050D01*
X540800Y530750D02*
Y539250D01*
X434950Y535000D02*
X443450D01*
X439200Y530750D02*
Y539250D01*
X672910Y336550D02*
X680910D01*
X676910Y332550D02*
Y340550D01*
X672910Y361950D02*
X680910D01*
X676910Y357950D02*
Y365950D01*
X201900Y510000D02*
X208900D01*
X205400Y506500D02*
Y513500D01*
X473800Y480000D02*
X480800D01*
X477300Y476500D02*
Y483500D01*
X486500Y480000D02*
X493500D01*
X490000Y476500D02*
Y483500D01*
X499200Y480000D02*
X506200D01*
X502700Y476500D02*
Y483500D01*
X72440Y468890D02*
X79440D01*
X75940Y465390D02*
Y472390D01*
X103440Y468890D02*
X110440D01*
X106940Y465390D02*
Y472390D01*
X103440Y437890D02*
X110440D01*
X106940Y434390D02*
Y441390D01*
X72440Y437890D02*
X79440D01*
X75940Y434390D02*
Y441390D01*
X596550Y370000D02*
X605050D01*
X600800Y365750D02*
Y374250D01*
X494950Y370000D02*
X503450D01*
X499200Y365750D02*
Y374250D01*
X629600Y35000D02*
X639600D01*
X634600Y30000D02*
Y40000D01*
X578800Y35000D02*
X588800D01*
X583800Y30000D02*
Y40000D01*
X604200Y35000D02*
X614200D01*
X609200Y30000D02*
Y40000D01*
X655000Y35000D02*
X665000D01*
X660000Y30000D02*
Y40000D01*
X626550Y325000D02*
X635050D01*
X630800Y320750D02*
Y329250D01*
X524950Y325000D02*
X533450D01*
X529200Y320750D02*
Y329250D01*
X557350Y420000D02*
X565850D01*
X561600Y415750D02*
Y424250D01*
X455750Y420000D02*
X464250D01*
X460000Y415750D02*
Y424250D01*
X175750Y460800D02*
X184250D01*
X180000Y456550D02*
Y465050D01*
X175750Y359200D02*
X184250D01*
X180000Y354950D02*
Y363450D01*
X220750Y460800D02*
X229250D01*
X225000Y456550D02*
Y465050D01*
X220750Y359200D02*
X229250D01*
X225000Y354950D02*
Y363450D01*
X328400Y615000D02*
X338400D01*
X333400Y610000D02*
Y620000D01*
X353800Y615000D02*
X363800D01*
X358800Y610000D02*
Y620000D01*
X379200Y615000D02*
X389200D01*
X384200Y610000D02*
Y620000D01*
X404600Y615000D02*
X414600D01*
X409600Y610000D02*
Y620000D01*
X430000Y615000D02*
X440000D01*
X435000Y610000D02*
Y620000D01*
X455400Y615000D02*
X465400D01*
X460400Y610000D02*
Y620000D01*
X776250Y280000D02*
X793750D01*
X785000Y271250D02*
Y288750D01*
X776250Y250000D02*
X793750D01*
X785000Y241250D02*
Y258750D01*
X776250Y220000D02*
X793750D01*
X785000Y211250D02*
Y228750D01*
X641550Y500000D02*
X650050D01*
X645800Y495750D02*
Y504250D01*
X539950Y500000D02*
X548450D01*
X544200Y495750D02*
Y504250D01*
X103000Y615000D02*
X113000D01*
X108000Y610000D02*
Y620000D01*
X128400Y615000D02*
X138400D01*
X133400Y610000D02*
Y620000D01*
X153800Y615000D02*
X163800D01*
X158800Y610000D02*
Y620000D01*
X179200Y615000D02*
X189200D01*
X184200Y610000D02*
Y620000D01*
X204600Y615000D02*
X214600D01*
X209600Y610000D02*
Y620000D01*
X230000Y615000D02*
X240000D01*
X235000Y610000D02*
Y620000D01*
X19000Y570000D02*
X51000D01*
X35000Y554000D02*
Y586000D01*
X644000Y560000D02*
X676000D01*
X660000Y544000D02*
Y576000D01*
X794000Y35000D02*
X826000D01*
X810000Y19000D02*
Y51000D01*
X19000Y35000D02*
X51000D01*
X35000Y19000D02*
Y51000D01*
M02*
