G04*
G04 #@! TF.GenerationSoftware,Altium Limited,Altium Designer,20.2.6 (244)*
G04*
G04 Layer_Color=16711935*
%FSLAX44Y44*%
%MOMM*%
G71*
G04*
G04 #@! TF.SameCoordinates,95B47CC1-6D59-4A24-9DA9-F39AA99DDD39*
G04*
G04*
G04 #@! TF.FilePolarity,Positive*
G04*
G01*
G75*
%ADD14C,0.1000*%
D14*
X662690Y427990D02*
X662588Y430525D01*
X662282Y433043D01*
X661775Y435528D01*
X661069Y437965D01*
X660169Y440337D01*
X659082Y442629D01*
X657813Y444826D01*
X656372Y446913D01*
X654768Y448878D01*
X653011Y450708D01*
X651112Y452390D01*
X649084Y453914D01*
X646940Y455270D01*
X644694Y456449D01*
X642360Y457443D01*
X639954Y458246D01*
X637491Y458853D01*
X634987Y459260D01*
X632458Y459464D01*
X629922D01*
X627393Y459260D01*
X624889Y458853D01*
X622426Y458246D01*
X620020Y457443D01*
X617686Y456449D01*
X615440Y455270D01*
X613296Y453914D01*
X611268Y452390D01*
X609369Y450708D01*
X607612Y448878D01*
X606008Y446913D01*
X604566Y444826D01*
X603298Y442629D01*
X602211Y440337D01*
X601311Y437965D01*
X600605Y435528D01*
X600098Y433043D01*
X599792Y430525D01*
X599690Y427990D01*
X599792Y425455D01*
X600098Y422937D01*
X600605Y420452D01*
X601311Y418015D01*
X602211Y415643D01*
X603298Y413351D01*
X604566Y411154D01*
X606008Y409067D01*
X607612Y407102D01*
X609369Y405272D01*
X611268Y403590D01*
X613296Y402066D01*
X615440Y400710D01*
X617686Y399531D01*
X620020Y398537D01*
X622426Y397734D01*
X624889Y397127D01*
X627393Y396720D01*
X629922Y396516D01*
X632458D01*
X634987Y396720D01*
X637491Y397127D01*
X639954Y397734D01*
X642360Y398537D01*
X644694Y399531D01*
X646940Y400710D01*
X649084Y402066D01*
X651112Y403590D01*
X653011Y405272D01*
X654768Y407102D01*
X656373Y409067D01*
X657813Y411154D01*
X659082Y413351D01*
X660169Y415643D01*
X661069Y418015D01*
X661775Y420452D01*
X662282Y422937D01*
X662588Y425455D01*
X662690Y427990D01*
X173361Y523352D02*
X172026Y521174D01*
X170936Y518864D01*
X170102Y516449D01*
X169536Y513958D01*
X169243Y511420D01*
X169227Y508866D01*
X169489Y506325D01*
X170025Y503827D01*
X170829Y501402D01*
X171892Y499079D01*
X173200Y496885D01*
X174739Y494846D01*
X176490Y492986D01*
X178432Y491327D01*
X180543Y489889D01*
X182798Y488688D01*
X185170Y487739D01*
X187631Y487053D01*
X190151Y486639D01*
X192702Y486500D01*
X195253Y486639D01*
X197773Y487054D01*
X200234Y487740D01*
X202605Y488690D01*
X204860Y489891D01*
X206971Y491329D01*
X208913Y492989D01*
X210664Y494849D01*
X212202Y496888D01*
X213510Y499083D01*
X214572Y501406D01*
X215376Y503831D01*
X215911Y506328D01*
X216173Y508870D01*
X216157Y511424D01*
X215864Y513962D01*
X215297Y516452D01*
X214463Y518867D01*
X213372Y521177D01*
X212037Y523355D01*
X470661Y493352D02*
X469326Y491174D01*
X468236Y488864D01*
X467402Y486449D01*
X466836Y483958D01*
X466543Y481420D01*
X466527Y478866D01*
X466789Y476325D01*
X467325Y473827D01*
X468129Y471402D01*
X469192Y469079D01*
X470500Y466885D01*
X472039Y464846D01*
X473790Y462986D01*
X475732Y461327D01*
X477843Y459889D01*
X480098Y458688D01*
X482470Y457739D01*
X484930Y457053D01*
X487451Y456639D01*
X490002Y456500D01*
X492553Y456639D01*
X495073Y457054D01*
X497534Y457740D01*
X499905Y458690D01*
X502160Y459891D01*
X504271Y461329D01*
X506213Y462989D01*
X507964Y464849D01*
X509502Y466888D01*
X510810Y469083D01*
X511872Y471406D01*
X512676Y473831D01*
X513211Y476328D01*
X513473Y478870D01*
X513457Y481424D01*
X513164Y483962D01*
X512597Y486452D01*
X511763Y488867D01*
X510672Y491177D01*
X509337Y493355D01*
X664210Y330200D02*
Y368300D01*
X689610Y330200D02*
Y368300D01*
X664210Y330200D02*
X689610D01*
X664210Y368300D02*
X689610D01*
X173364Y523350D02*
X212037D01*
X470663Y493350D02*
X509337D01*
M02*
