G04*
G04 #@! TF.GenerationSoftware,Altium Limited,Altium Designer,20.2.6 (244)*
G04*
G04 Layer_Physical_Order=1*
G04 Layer_Color=255*
%FSLAX44Y44*%
%MOMM*%
G71*
G04*
G04 #@! TF.SameCoordinates,95B47CC1-6D59-4A24-9DA9-F39AA99DDD39*
G04*
G04*
G04 #@! TF.FilePolarity,Positive*
G04*
G01*
G75*
%ADD28C,0.3000*%
%ADD29C,1.2000*%
%ADD30C,1.0000*%
%ADD31C,1.8000*%
%ADD32C,0.9500*%
%ADD33C,2.5000*%
%ADD34C,2.0000*%
%ADD35C,1.1500*%
%ADD36O,2.4000X1.2000*%
%ADD37C,1.3000*%
%ADD38R,1.3000X1.3000*%
%ADD39C,1.4000*%
%ADD40R,0.9500X0.9500*%
%ADD41C,5.0000*%
G36*
X846391Y3609D02*
X3609D01*
Y646391D01*
X846391D01*
Y3609D01*
D02*
G37*
%LPC*%
G36*
X437000Y626376D02*
Y617000D01*
X446376D01*
X446243Y618013D01*
X445080Y620820D01*
X443230Y623231D01*
X440820Y625080D01*
X438012Y626243D01*
X437000Y626376D01*
D02*
G37*
G36*
X110000D02*
Y617000D01*
X119376D01*
X119243Y618013D01*
X118080Y620820D01*
X116230Y623231D01*
X113820Y625080D01*
X111012Y626243D01*
X110000Y626376D01*
D02*
G37*
G36*
X433000D02*
X431987Y626243D01*
X429180Y625080D01*
X426769Y623231D01*
X424920Y620820D01*
X423757Y618013D01*
X423624Y617000D01*
X433000D01*
Y626376D01*
D02*
G37*
G36*
X106000D02*
X104987Y626243D01*
X102180Y625080D01*
X99769Y623231D01*
X97920Y620820D01*
X96757Y618013D01*
X96623Y617000D01*
X106000D01*
Y626376D01*
D02*
G37*
G36*
X446376Y613000D02*
X437000D01*
Y603624D01*
X438012Y603757D01*
X440820Y604920D01*
X443230Y606770D01*
X445080Y609180D01*
X446243Y611987D01*
X446376Y613000D01*
D02*
G37*
G36*
X119376D02*
X110000D01*
Y603624D01*
X111012Y603757D01*
X113820Y604920D01*
X116230Y606770D01*
X118080Y609180D01*
X119243Y611987D01*
X119376Y613000D01*
D02*
G37*
G36*
X106000D02*
X96623D01*
X96757Y611987D01*
X97920Y609180D01*
X99769Y606770D01*
X102180Y604920D01*
X104987Y603757D01*
X106000Y603624D01*
Y613000D01*
D02*
G37*
G36*
X433000D02*
X423624D01*
X423757Y611987D01*
X424920Y609180D01*
X426769Y606770D01*
X429180Y604920D01*
X431987Y603757D01*
X433000Y603624D01*
Y613000D01*
D02*
G37*
G36*
X460400Y626640D02*
X457387Y626243D01*
X454580Y625080D01*
X452169Y623231D01*
X450320Y620820D01*
X449157Y618013D01*
X448760Y615000D01*
X449157Y611987D01*
X450320Y609180D01*
X452169Y606770D01*
X454580Y604920D01*
X457387Y603757D01*
X460400Y603360D01*
X463412Y603757D01*
X466220Y604920D01*
X468630Y606770D01*
X470480Y609180D01*
X471643Y611987D01*
X472039Y615000D01*
X471643Y618013D01*
X470480Y620820D01*
X468630Y623231D01*
X466220Y625080D01*
X463412Y626243D01*
X460400Y626640D01*
D02*
G37*
G36*
X409600D02*
X406587Y626243D01*
X403780Y625080D01*
X401370Y623231D01*
X399520Y620820D01*
X398357Y618013D01*
X397960Y615000D01*
X398357Y611987D01*
X399520Y609180D01*
X401370Y606770D01*
X403780Y604920D01*
X406587Y603757D01*
X409600Y603360D01*
X412612Y603757D01*
X415420Y604920D01*
X417830Y606770D01*
X419680Y609180D01*
X420843Y611987D01*
X421239Y615000D01*
X420843Y618013D01*
X419680Y620820D01*
X417830Y623231D01*
X415420Y625080D01*
X412612Y626243D01*
X409600Y626640D01*
D02*
G37*
G36*
X384200D02*
X381187Y626243D01*
X378380Y625080D01*
X375970Y623231D01*
X374120Y620820D01*
X372957Y618013D01*
X372560Y615000D01*
X372957Y611987D01*
X374120Y609180D01*
X375970Y606770D01*
X378380Y604920D01*
X381187Y603757D01*
X384200Y603360D01*
X387212Y603757D01*
X390020Y604920D01*
X392430Y606770D01*
X394280Y609180D01*
X395443Y611987D01*
X395839Y615000D01*
X395443Y618013D01*
X394280Y620820D01*
X392430Y623231D01*
X390020Y625080D01*
X387212Y626243D01*
X384200Y626640D01*
D02*
G37*
G36*
X333400D02*
X330387Y626243D01*
X327580Y625080D01*
X325169Y623231D01*
X323320Y620820D01*
X322157Y618013D01*
X321760Y615000D01*
X322157Y611987D01*
X323320Y609180D01*
X325169Y606770D01*
X327580Y604920D01*
X330387Y603757D01*
X333400Y603360D01*
X336412Y603757D01*
X339220Y604920D01*
X341630Y606770D01*
X343480Y609180D01*
X344643Y611987D01*
X345039Y615000D01*
X344643Y618013D01*
X343480Y620820D01*
X341630Y623231D01*
X339220Y625080D01*
X336412Y626243D01*
X333400Y626640D01*
D02*
G37*
G36*
X235000D02*
X231987Y626243D01*
X229180Y625080D01*
X226769Y623231D01*
X224920Y620820D01*
X223757Y618013D01*
X223360Y615000D01*
X223757Y611987D01*
X224920Y609180D01*
X226769Y606770D01*
X229180Y604920D01*
X231987Y603757D01*
X235000Y603360D01*
X238012Y603757D01*
X240820Y604920D01*
X243230Y606770D01*
X245080Y609180D01*
X246243Y611987D01*
X246639Y615000D01*
X246243Y618013D01*
X245080Y620820D01*
X243230Y623231D01*
X240820Y625080D01*
X238012Y626243D01*
X235000Y626640D01*
D02*
G37*
G36*
X209600D02*
X206587Y626243D01*
X203780Y625080D01*
X201369Y623231D01*
X199520Y620820D01*
X198357Y618013D01*
X197960Y615000D01*
X198357Y611987D01*
X199520Y609180D01*
X201369Y606770D01*
X203780Y604920D01*
X206587Y603757D01*
X209600Y603360D01*
X212612Y603757D01*
X215420Y604920D01*
X217830Y606770D01*
X219680Y609180D01*
X220843Y611987D01*
X221239Y615000D01*
X220843Y618013D01*
X219680Y620820D01*
X217830Y623231D01*
X215420Y625080D01*
X212612Y626243D01*
X209600Y626640D01*
D02*
G37*
G36*
X608200Y601376D02*
Y592000D01*
X617576D01*
X617443Y593013D01*
X616280Y595820D01*
X614430Y598230D01*
X612020Y600080D01*
X609212Y601243D01*
X608200Y601376D01*
D02*
G37*
G36*
X604200D02*
X603187Y601243D01*
X600380Y600080D01*
X597970Y598230D01*
X596120Y595820D01*
X594957Y593013D01*
X594824Y592000D01*
X604200D01*
Y601376D01*
D02*
G37*
G36*
X617576Y588000D02*
X608200D01*
Y578624D01*
X609212Y578757D01*
X612020Y579920D01*
X614430Y581770D01*
X616280Y584180D01*
X617443Y586987D01*
X617576Y588000D01*
D02*
G37*
G36*
X604200D02*
X594824D01*
X594957Y586987D01*
X596120Y584180D01*
X597970Y581770D01*
X600380Y579920D01*
X603187Y578757D01*
X604200Y578624D01*
Y588000D01*
D02*
G37*
G36*
X580800Y601640D02*
X577788Y601243D01*
X574980Y600080D01*
X572570Y598230D01*
X570720Y595820D01*
X569557Y593013D01*
X569160Y590000D01*
X569557Y586987D01*
X570261Y585287D01*
X559094Y574119D01*
X535400D01*
X533824Y573806D01*
X532487Y572913D01*
X512087Y552513D01*
X511194Y551176D01*
X510881Y549600D01*
Y488191D01*
X509990Y487290D01*
X509611Y487290D01*
X504700D01*
Y480000D01*
Y472710D01*
X509611D01*
X509990Y472710D01*
X510881Y471809D01*
Y105006D01*
X481713Y75838D01*
X480012Y76543D01*
X477000Y76939D01*
X473987Y76543D01*
X471180Y75380D01*
X468769Y73530D01*
X466920Y71120D01*
X465757Y68312D01*
X465360Y65300D01*
X465757Y62287D01*
X466920Y59480D01*
X468769Y57069D01*
X471180Y55220D01*
X473987Y54057D01*
X477000Y53660D01*
X480012Y54057D01*
X482820Y55220D01*
X485230Y57069D01*
X487080Y59480D01*
X488243Y62287D01*
X488639Y65300D01*
X488243Y68312D01*
X487538Y70013D01*
X517913Y100387D01*
X518806Y101724D01*
X519119Y103300D01*
Y321089D01*
X520389Y321342D01*
X520867Y320189D01*
X522396Y318196D01*
X524389Y316667D01*
X526709Y315706D01*
X529200Y315378D01*
X531690Y315706D01*
X534011Y316667D01*
X536004Y318196D01*
X537533Y320189D01*
X538494Y322510D01*
X538822Y325000D01*
X538494Y327491D01*
X537533Y329811D01*
X536004Y331804D01*
X534011Y333333D01*
X531690Y334295D01*
X529200Y334622D01*
X526709Y334295D01*
X524389Y333333D01*
X522396Y331804D01*
X520867Y329811D01*
X520389Y328658D01*
X519119Y328911D01*
Y547894D01*
X537106Y565881D01*
X560800D01*
X562376Y566194D01*
X563713Y567087D01*
X576087Y579462D01*
X577788Y578757D01*
X580800Y578360D01*
X583812Y578757D01*
X586620Y579920D01*
X589030Y581770D01*
X590880Y584180D01*
X592043Y586987D01*
X592440Y590000D01*
X592043Y593013D01*
X590880Y595820D01*
X589030Y598230D01*
X586620Y600080D01*
X583812Y601243D01*
X580800Y601640D01*
D02*
G37*
G36*
X555400D02*
X552388Y601243D01*
X549580Y600080D01*
X547170Y598230D01*
X545320Y595820D01*
X544157Y593013D01*
X543760Y590000D01*
X544157Y586987D01*
X545320Y584180D01*
X547170Y581770D01*
X549580Y579920D01*
X552388Y578757D01*
X555400Y578360D01*
X558413Y578757D01*
X561220Y579920D01*
X563630Y581770D01*
X565480Y584180D01*
X566643Y586987D01*
X567040Y590000D01*
X566643Y593013D01*
X565480Y595820D01*
X563630Y598230D01*
X561220Y600080D01*
X558413Y601243D01*
X555400Y601640D01*
D02*
G37*
G36*
X530000D02*
X526987Y601243D01*
X524180Y600080D01*
X521770Y598230D01*
X519920Y595820D01*
X518757Y593013D01*
X518360Y590000D01*
X518757Y586987D01*
X519920Y584180D01*
X521770Y581770D01*
X524180Y579920D01*
X526987Y578757D01*
X530000Y578360D01*
X533013Y578757D01*
X535820Y579920D01*
X538230Y581770D01*
X540080Y584180D01*
X541243Y586987D01*
X541640Y590000D01*
X541243Y593013D01*
X540080Y595820D01*
X538230Y598230D01*
X535820Y600080D01*
X533013Y601243D01*
X530000Y601640D01*
D02*
G37*
G36*
X750000Y597440D02*
X746988Y597043D01*
X744180Y595880D01*
X741770Y594031D01*
X739920Y591620D01*
X738757Y588813D01*
X738361Y585800D01*
X738757Y582788D01*
X739920Y579980D01*
X741770Y577570D01*
X744180Y575720D01*
X746988Y574557D01*
X750000Y574161D01*
X753013Y574557D01*
X755820Y575720D01*
X758230Y577570D01*
X760080Y579980D01*
X761243Y582788D01*
X761640Y585800D01*
X761243Y588813D01*
X760080Y591620D01*
X758230Y594031D01*
X755820Y595880D01*
X753013Y597043D01*
X750000Y597440D01*
D02*
G37*
G36*
X35000Y597625D02*
X30679Y597285D01*
X26463Y596273D01*
X22459Y594614D01*
X18763Y592349D01*
X15466Y589534D01*
X12651Y586237D01*
X10386Y582541D01*
X8727Y578536D01*
X7715Y574321D01*
X7375Y570000D01*
X7715Y565678D01*
X8727Y561463D01*
X10386Y557458D01*
X12651Y553762D01*
X15466Y550466D01*
X18763Y547651D01*
X22459Y545386D01*
X26463Y543727D01*
X30679Y542715D01*
X35000Y542375D01*
X39322Y542715D01*
X43537Y543727D01*
X47542Y545386D01*
X51238Y547651D01*
X54534Y550466D01*
X57349Y553762D01*
X59614Y557458D01*
X61273Y561463D01*
X62285Y565678D01*
X62625Y570000D01*
X62285Y574321D01*
X61273Y578536D01*
X59614Y582541D01*
X57349Y586237D01*
X54534Y589534D01*
X51238Y592349D01*
X47542Y594614D01*
X43537Y596273D01*
X39322Y597285D01*
X35000Y597625D01*
D02*
G37*
G36*
X441200Y544359D02*
Y537000D01*
X448559D01*
X448494Y537491D01*
X447533Y539811D01*
X446004Y541804D01*
X444011Y543333D01*
X441690Y544295D01*
X441200Y544359D01*
D02*
G37*
G36*
X437200D02*
X436710Y544295D01*
X434389Y543333D01*
X432396Y541804D01*
X430867Y539811D01*
X429906Y537491D01*
X429841Y537000D01*
X437200D01*
Y544359D01*
D02*
G37*
G36*
X660000Y587625D02*
X655679Y587285D01*
X651464Y586273D01*
X647459Y584614D01*
X643763Y582349D01*
X640466Y579534D01*
X637651Y576238D01*
X635386Y572542D01*
X633727Y568536D01*
X632715Y564321D01*
X632375Y560000D01*
X632715Y555678D01*
X633727Y551463D01*
X635386Y547458D01*
X637651Y543762D01*
X640466Y540466D01*
X643763Y537651D01*
X647459Y535386D01*
X651464Y533727D01*
X655679Y532715D01*
X660000Y532375D01*
X664322Y532715D01*
X668537Y533727D01*
X672542Y535386D01*
X676238Y537651D01*
X679534Y540466D01*
X682349Y543762D01*
X684614Y547458D01*
X686273Y551463D01*
X687285Y555678D01*
X687625Y560000D01*
X687285Y564321D01*
X686273Y568536D01*
X684614Y572542D01*
X682349Y576238D01*
X679534Y579534D01*
X676238Y582349D01*
X672542Y584614D01*
X668537Y586273D01*
X664322Y587285D01*
X660000Y587625D01*
D02*
G37*
G36*
X448559Y533000D02*
X441200D01*
Y525641D01*
X441690Y525706D01*
X444011Y526667D01*
X446004Y528196D01*
X447533Y530189D01*
X448494Y532510D01*
X448559Y533000D01*
D02*
G37*
G36*
X437200D02*
X429841D01*
X429906Y532510D01*
X430867Y530189D01*
X432396Y528196D01*
X434389Y526667D01*
X436710Y525706D01*
X437200Y525641D01*
Y533000D01*
D02*
G37*
G36*
X192700Y517353D02*
X190797Y517102D01*
X189024Y516368D01*
X187501Y515199D01*
X186985Y514527D01*
X185715D01*
X185200Y515199D01*
X183677Y516368D01*
X181903Y517102D01*
X180000Y517353D01*
X178097Y517102D01*
X176324Y516368D01*
X174801Y515199D01*
X173632Y513676D01*
X172898Y511903D01*
X172647Y510000D01*
X172898Y508097D01*
X173632Y506324D01*
X174801Y504801D01*
X176324Y503632D01*
X178097Y502898D01*
X180000Y502647D01*
X181903Y502898D01*
X183677Y503632D01*
X185200Y504801D01*
X185715Y505473D01*
X186985D01*
X187501Y504801D01*
X188581Y503972D01*
Y493100D01*
X188895Y491524D01*
X189788Y490187D01*
X215992Y463983D01*
X215705Y463291D01*
X215378Y460800D01*
X215705Y458310D01*
X216667Y455989D01*
X218196Y453996D01*
X220189Y452467D01*
X222509Y451506D01*
X225000Y451178D01*
X227490Y451506D01*
X229811Y452467D01*
X231804Y453996D01*
X233333Y455989D01*
X234294Y458310D01*
X234622Y460800D01*
X234294Y463291D01*
X233333Y465611D01*
X231804Y467604D01*
X229811Y469133D01*
X227490Y470095D01*
X225000Y470423D01*
X222509Y470095D01*
X221817Y469808D01*
X196819Y494806D01*
Y502582D01*
X196878Y502619D01*
X198110Y502710D01*
Y502710D01*
X203400D01*
Y510000D01*
Y517290D01*
X198110D01*
Y516638D01*
X196840Y516012D01*
X196377Y516368D01*
X194603Y517102D01*
X192700Y517353D01*
D02*
G37*
G36*
X212690Y517290D02*
X207400D01*
Y512000D01*
X212690D01*
Y517290D01*
D02*
G37*
G36*
Y508000D02*
X207400D01*
Y502710D01*
X212690D01*
Y508000D01*
D02*
G37*
G36*
X645800Y509622D02*
X643310Y509295D01*
X640989Y508333D01*
X638996Y506804D01*
X637467Y504811D01*
X636506Y502491D01*
X636178Y500000D01*
X636506Y497510D01*
X637467Y495189D01*
X638996Y493196D01*
X640989Y491667D01*
X643310Y490706D01*
X645800Y490378D01*
X648290Y490706D01*
X650611Y491667D01*
X652604Y493196D01*
X654133Y495189D01*
X655095Y497510D01*
X655422Y500000D01*
X655095Y502491D01*
X654133Y504811D01*
X652604Y506804D01*
X650611Y508333D01*
X648290Y509295D01*
X645800Y509622D01*
D02*
G37*
G36*
X540800Y544622D02*
X538310Y544295D01*
X535989Y543333D01*
X533996Y541804D01*
X532467Y539811D01*
X531506Y537491D01*
X531178Y535000D01*
X531506Y532510D01*
X532467Y530189D01*
X533996Y528196D01*
X535989Y526667D01*
X536681Y526380D01*
Y519020D01*
X536995Y517444D01*
X537887Y516107D01*
X540081Y513914D01*
Y508620D01*
X539389Y508333D01*
X537396Y506804D01*
X535867Y504811D01*
X534906Y502491D01*
X534578Y500000D01*
X534906Y497510D01*
X535867Y495189D01*
X537396Y493196D01*
X539389Y491667D01*
X541710Y490706D01*
X544200Y490378D01*
X546690Y490706D01*
X549011Y491667D01*
X551004Y493196D01*
X552533Y495189D01*
X553494Y497510D01*
X553822Y500000D01*
X553494Y502491D01*
X552533Y504811D01*
X551004Y506804D01*
X549011Y508333D01*
X548319Y508620D01*
Y515620D01*
X548006Y517196D01*
X547113Y518533D01*
X544919Y520726D01*
Y526380D01*
X545611Y526667D01*
X547604Y528196D01*
X549133Y530189D01*
X550094Y532510D01*
X550422Y535000D01*
X550094Y537491D01*
X549133Y539811D01*
X547604Y541804D01*
X545611Y543333D01*
X543290Y544295D01*
X540800Y544622D01*
D02*
G37*
G36*
X752000Y495577D02*
Y486200D01*
X761376D01*
X761243Y487213D01*
X760080Y490020D01*
X758230Y492431D01*
X755820Y494280D01*
X753013Y495443D01*
X752000Y495577D01*
D02*
G37*
G36*
X748000D02*
X746988Y495443D01*
X744180Y494280D01*
X741770Y492431D01*
X739920Y490020D01*
X738757Y487213D01*
X738624Y486200D01*
X748000D01*
Y495577D01*
D02*
G37*
G36*
X490000Y487353D02*
X488097Y487102D01*
X486324Y486368D01*
X484801Y485199D01*
X484285Y484527D01*
X483015D01*
X482499Y485199D01*
X480976Y486368D01*
X479203Y487102D01*
X477300Y487353D01*
X475397Y487102D01*
X473624Y486368D01*
X472101Y485199D01*
X470932Y483676D01*
X470198Y481903D01*
X469947Y480000D01*
X470198Y478097D01*
X470932Y476324D01*
X472101Y474801D01*
X473624Y473632D01*
X475397Y472898D01*
X477300Y472647D01*
X479203Y472898D01*
X480976Y473632D01*
X482499Y474801D01*
X483015Y475473D01*
X484285D01*
X484801Y474801D01*
X486324Y473632D01*
X488097Y472898D01*
X490000Y472647D01*
X491903Y472898D01*
X493676Y473632D01*
X494140Y473988D01*
X495410Y473362D01*
Y472710D01*
X500700D01*
Y480000D01*
Y487290D01*
X495410D01*
Y486638D01*
X494140Y486012D01*
X493676Y486368D01*
X491903Y487102D01*
X490000Y487353D01*
D02*
G37*
G36*
X377757Y504706D02*
X374484Y504275D01*
X371433Y503011D01*
X368814Y501001D01*
X366804Y498382D01*
X365540Y495331D01*
X365109Y492057D01*
X365540Y488784D01*
X366804Y485733D01*
X368814Y483114D01*
X371433Y481104D01*
X374484Y479840D01*
X377757Y479409D01*
X381031Y479840D01*
X384081Y481104D01*
X386701Y483114D01*
X388711Y485733D01*
X389975Y488784D01*
X390406Y492057D01*
X389975Y495331D01*
X388711Y498382D01*
X386701Y501001D01*
X384081Y503011D01*
X381031Y504275D01*
X377757Y504706D01*
D02*
G37*
G36*
X761376Y482200D02*
X752000D01*
Y472824D01*
X753013Y472957D01*
X755820Y474120D01*
X758230Y475970D01*
X760080Y478380D01*
X761243Y481188D01*
X761376Y482200D01*
D02*
G37*
G36*
X748000D02*
X738624D01*
X738757Y481188D01*
X739920Y478380D01*
X741770Y475970D01*
X744180Y474120D01*
X746988Y472957D01*
X748000Y472824D01*
Y482200D01*
D02*
G37*
G36*
X184200Y626640D02*
X181187Y626243D01*
X178380Y625080D01*
X175969Y623231D01*
X174120Y620820D01*
X172957Y618013D01*
X172560Y615000D01*
X172957Y611987D01*
X174120Y609180D01*
X175969Y606770D01*
X178380Y604920D01*
X181187Y603757D01*
X184200Y603360D01*
X187212Y603757D01*
X188913Y604462D01*
X225295Y568079D01*
X226632Y567186D01*
X228208Y566873D01*
X325446D01*
X401773Y490546D01*
Y467807D01*
X401382Y467674D01*
X400503Y467499D01*
X397994Y469424D01*
X394944Y470687D01*
X391670Y471118D01*
X388396Y470687D01*
X385346Y469424D01*
X382726Y467414D01*
X380716Y464794D01*
X379453Y461744D01*
X379022Y458470D01*
X379453Y455196D01*
X379815Y454323D01*
X378738Y453603D01*
X280027Y552315D01*
X278690Y553208D01*
X277114Y553521D01*
X226104D01*
X169338Y610287D01*
X170043Y611987D01*
X170439Y615000D01*
X170043Y618013D01*
X168880Y620820D01*
X167030Y623231D01*
X164620Y625080D01*
X161812Y626243D01*
X158800Y626640D01*
X155787Y626243D01*
X152980Y625080D01*
X150569Y623231D01*
X148720Y620820D01*
X147557Y618013D01*
X147160Y615000D01*
X147557Y611987D01*
X148720Y609180D01*
X150569Y606770D01*
X152980Y604920D01*
X155787Y603757D01*
X158800Y603360D01*
X161812Y603757D01*
X163513Y604462D01*
X221485Y546489D01*
X222822Y545596D01*
X224398Y545283D01*
X275408D01*
X315879Y504811D01*
X315160Y503735D01*
X313856Y504275D01*
X310583Y504706D01*
X307309Y504275D01*
X304258Y503011D01*
X301639Y501001D01*
X299629Y498382D01*
X298365Y495331D01*
X297934Y492057D01*
X298155Y490385D01*
X291292Y483522D01*
X290084Y481947D01*
X289324Y480113D01*
X289065Y478145D01*
Y468441D01*
X287726Y467414D01*
X285716Y464794D01*
X284453Y461744D01*
X284022Y458470D01*
X284242Y456797D01*
X284055Y456611D01*
X282847Y455036D01*
X282087Y453201D01*
X281828Y451233D01*
X282087Y449265D01*
X282847Y447430D01*
X284055Y445855D01*
X285257Y444654D01*
Y173238D01*
X285516Y171269D01*
X286276Y169435D01*
X287484Y167860D01*
X313063Y142281D01*
X312960Y141500D01*
X313063Y140718D01*
X284622Y112278D01*
X283414Y110703D01*
X282654Y108868D01*
X282395Y106900D01*
Y60000D01*
X282654Y58032D01*
X283414Y56198D01*
X284622Y54622D01*
X329622Y9622D01*
X331198Y8414D01*
X331957Y8099D01*
X333032Y7654D01*
X335000Y7395D01*
X563800D01*
X565768Y7654D01*
X567603Y8414D01*
X569178Y9622D01*
X583019Y23463D01*
X583800Y23361D01*
X586813Y23757D01*
X589620Y24920D01*
X592031Y26770D01*
X593880Y29180D01*
X595043Y31988D01*
X595440Y35000D01*
X595043Y38013D01*
X593880Y40820D01*
X592031Y43231D01*
X589620Y45080D01*
X586813Y46243D01*
X583800Y46640D01*
X580788Y46243D01*
X577980Y45080D01*
X575570Y43231D01*
X573720Y40820D01*
X572557Y38013D01*
X572161Y35000D01*
X572263Y34219D01*
X560650Y22605D01*
X530978D01*
X530492Y23778D01*
X691253Y184539D01*
X692146Y185876D01*
X692459Y187452D01*
Y261634D01*
X777683Y346858D01*
X779217Y346038D01*
X782052Y345178D01*
X785000Y344888D01*
X787949Y345178D01*
X790784Y346038D01*
X793396Y347435D01*
X795686Y349314D01*
X797566Y351604D01*
X798963Y354217D01*
X799823Y357052D01*
X800113Y360000D01*
X799823Y362949D01*
X798963Y365784D01*
X798143Y367318D01*
X804537Y373711D01*
X805430Y375048D01*
X805743Y376624D01*
Y508776D01*
X805430Y510353D01*
X804537Y511689D01*
X760538Y555687D01*
X761243Y557388D01*
X761640Y560400D01*
X761243Y563413D01*
X760080Y566220D01*
X758230Y568631D01*
X755820Y570480D01*
X753013Y571643D01*
X750000Y572040D01*
X746988Y571643D01*
X744180Y570480D01*
X741770Y568631D01*
X739920Y566220D01*
X738757Y563413D01*
X738361Y560400D01*
X738757Y557388D01*
X739920Y554580D01*
X741770Y552170D01*
X744180Y550320D01*
X746988Y549157D01*
X750000Y548761D01*
X753013Y549157D01*
X754713Y549862D01*
X797505Y507070D01*
Y430356D01*
X796309Y429928D01*
X795686Y430686D01*
X793396Y432566D01*
X790784Y433963D01*
X787949Y434823D01*
X785000Y435113D01*
X782052Y434823D01*
X779217Y433963D01*
X776604Y432566D01*
X774314Y430686D01*
X772434Y428396D01*
X771038Y425784D01*
X770178Y422948D01*
X769887Y420000D01*
X770178Y417052D01*
X771038Y414217D01*
X772434Y411604D01*
X774314Y409314D01*
X776604Y407434D01*
X779217Y406038D01*
X780450Y405664D01*
Y404337D01*
X779217Y403963D01*
X776604Y402566D01*
X774314Y400687D01*
X772434Y398396D01*
X771038Y395784D01*
X770178Y392949D01*
X769887Y390000D01*
X770178Y387052D01*
X771038Y384217D01*
X772434Y381604D01*
X774314Y379314D01*
X776604Y377434D01*
X779217Y376038D01*
X780450Y375664D01*
Y374337D01*
X779217Y373963D01*
X776604Y372566D01*
X774314Y370687D01*
X772434Y368396D01*
X771038Y365784D01*
X770178Y362949D01*
X769887Y360000D01*
X770178Y357052D01*
X771038Y354217D01*
X771858Y352683D01*
X685427Y266253D01*
X684534Y264916D01*
X684221Y263340D01*
Y189158D01*
X523820Y28757D01*
X470687D01*
X470390Y30027D01*
X472530Y31669D01*
X474380Y34080D01*
X475084Y35781D01*
X523262D01*
X524838Y36094D01*
X526175Y36987D01*
X620387Y131199D01*
X621280Y132536D01*
X621593Y134112D01*
Y319241D01*
X622863Y319672D01*
X623996Y318196D01*
X625989Y316667D01*
X628309Y315706D01*
X630800Y315378D01*
X633290Y315706D01*
X635611Y316667D01*
X637604Y318196D01*
X639133Y320189D01*
X640094Y322510D01*
X640422Y325000D01*
X640094Y327491D01*
X639133Y329811D01*
X638405Y330760D01*
Y354585D01*
X638536Y354902D01*
X638795Y356870D01*
Y406450D01*
X640230D01*
Y413775D01*
X656634Y430179D01*
X657842Y431754D01*
X658078Y432323D01*
X737341Y511586D01*
X738544Y510993D01*
X738361Y509600D01*
X738757Y506588D01*
X739920Y503780D01*
X741770Y501370D01*
X744180Y499520D01*
X746988Y498357D01*
X750000Y497961D01*
X753013Y498357D01*
X755820Y499520D01*
X758230Y501370D01*
X760080Y503780D01*
X761243Y506588D01*
X761640Y509600D01*
X761243Y512613D01*
X760080Y515420D01*
X758230Y517831D01*
X755820Y519680D01*
X753013Y520843D01*
X750000Y521240D01*
X748607Y521056D01*
X748014Y522259D01*
X749219Y523464D01*
X750000Y523361D01*
X753013Y523757D01*
X755820Y524920D01*
X758230Y526770D01*
X760080Y529180D01*
X761243Y531988D01*
X761640Y535000D01*
X761243Y538013D01*
X760080Y540820D01*
X758230Y543231D01*
X755820Y545080D01*
X753013Y546243D01*
X750000Y546640D01*
X746988Y546243D01*
X744180Y545080D01*
X741770Y543231D01*
X739920Y540820D01*
X738757Y538013D01*
X738361Y535000D01*
X738463Y534219D01*
X645878Y441634D01*
X644670Y440059D01*
X644434Y439489D01*
X640066Y435121D01*
X639086Y435931D01*
X639997Y438130D01*
X640045Y438490D01*
X631190D01*
Y440490D01*
X629190D01*
Y449344D01*
X628830Y449297D01*
X626631Y448386D01*
X624743Y446937D01*
X623294Y445049D01*
X622863Y444010D01*
X621593Y444262D01*
Y568524D01*
X660150Y607081D01*
X739215D01*
X739920Y605380D01*
X741770Y602970D01*
X744180Y601120D01*
X746988Y599957D01*
X750000Y599561D01*
X753013Y599957D01*
X755820Y601120D01*
X758230Y602970D01*
X760080Y605380D01*
X761243Y608188D01*
X761640Y611200D01*
X761243Y614213D01*
X760080Y617020D01*
X758230Y619431D01*
X755820Y621280D01*
X753013Y622443D01*
X750000Y622840D01*
X746988Y622443D01*
X744180Y621280D01*
X741770Y619431D01*
X739920Y617020D01*
X739215Y615319D01*
X658444D01*
X656868Y615006D01*
X655531Y614113D01*
X614561Y573143D01*
X613668Y571806D01*
X613355Y570230D01*
Y135818D01*
X521556Y44019D01*
X475084D01*
X474380Y45720D01*
X472530Y48130D01*
X470120Y49980D01*
X467312Y51143D01*
X464300Y51539D01*
X461287Y51143D01*
X458480Y49980D01*
X456493Y48455D01*
X455223Y49011D01*
Y63098D01*
X472287Y80161D01*
X473987Y79457D01*
X477000Y79060D01*
X480012Y79457D01*
X482820Y80620D01*
X485230Y82469D01*
X487080Y84880D01*
X488243Y87687D01*
X488639Y90700D01*
X488243Y93712D01*
X487080Y96520D01*
X485230Y98930D01*
X482820Y100780D01*
X480012Y101943D01*
X477000Y102339D01*
X473987Y101943D01*
X471180Y100780D01*
X468769Y98930D01*
X466920Y96520D01*
X465757Y93712D01*
X465360Y90700D01*
X465757Y87687D01*
X466461Y85987D01*
X448191Y67717D01*
X447298Y66380D01*
X446985Y64804D01*
Y31750D01*
X447298Y30174D01*
X448191Y28837D01*
X453250Y23778D01*
X452764Y22605D01*
X338150D01*
X297605Y63150D01*
Y103750D01*
X311941Y118086D01*
X313144Y117492D01*
X312960Y116100D01*
X313357Y113087D01*
X314520Y110280D01*
X316369Y107869D01*
X318780Y106020D01*
X321587Y104857D01*
X324600Y104460D01*
X327612Y104857D01*
X330420Y106020D01*
X332830Y107869D01*
X334680Y110280D01*
X335843Y113087D01*
X336239Y116100D01*
X335843Y119112D01*
X334680Y121920D01*
X332830Y124330D01*
X330420Y126180D01*
X327612Y127343D01*
X324600Y127739D01*
X323207Y127556D01*
X322614Y128759D01*
X323818Y129963D01*
X324600Y129860D01*
X327612Y130257D01*
X330420Y131420D01*
X332830Y133269D01*
X334680Y135680D01*
X335843Y138487D01*
X336239Y141500D01*
X335843Y144512D01*
X334680Y147320D01*
X332830Y149730D01*
X330420Y151580D01*
X327612Y152743D01*
X324600Y153139D01*
X323818Y153036D01*
X322614Y154241D01*
X323207Y155444D01*
X324600Y155260D01*
X327612Y155657D01*
X330420Y156820D01*
X332830Y158669D01*
X334680Y161080D01*
X335843Y163887D01*
X336239Y166900D01*
X335843Y169912D01*
X334680Y172720D01*
X332830Y175130D01*
X330420Y176980D01*
X327612Y178143D01*
X324600Y178539D01*
X321587Y178143D01*
X318780Y176980D01*
X316369Y175130D01*
X314520Y172720D01*
X313357Y169912D01*
X312960Y166900D01*
X313144Y165507D01*
X311941Y164914D01*
X300467Y176388D01*
Y415541D01*
X301009Y415725D01*
X301737Y415864D01*
X304258Y413929D01*
X307309Y412665D01*
X310583Y412234D01*
X313856Y412665D01*
X316907Y413929D01*
X319526Y415939D01*
X321536Y418559D01*
X322800Y421609D01*
X323231Y424883D01*
X322800Y428156D01*
X321536Y431207D01*
X319526Y433826D01*
X316907Y435836D01*
X313856Y437100D01*
X310583Y437531D01*
X307309Y437100D01*
X304258Y435836D01*
X301737Y433901D01*
X301009Y434040D01*
X300467Y434224D01*
Y446470D01*
X302994Y447516D01*
X305614Y449526D01*
X307624Y452146D01*
X308887Y455196D01*
X309318Y458470D01*
X308887Y461744D01*
X307624Y464794D01*
X305614Y467414D01*
X304275Y468441D01*
Y474995D01*
X308910Y479630D01*
X310583Y479409D01*
X313856Y479840D01*
X316907Y481104D01*
X319526Y483114D01*
X321536Y485733D01*
X322800Y488784D01*
X323231Y492057D01*
X322800Y495331D01*
X322260Y496635D01*
X323336Y497354D01*
X383054Y437636D01*
X382335Y436560D01*
X381031Y437100D01*
X377757Y437531D01*
X374484Y437100D01*
X371433Y435836D01*
X368814Y433826D01*
X366804Y431207D01*
X365540Y428156D01*
X365109Y424883D01*
X365540Y421609D01*
X366804Y418559D01*
X368814Y415939D01*
X371433Y413929D01*
X373638Y413016D01*
Y297964D01*
X329313Y253638D01*
X327612Y254343D01*
X324600Y254739D01*
X321587Y254343D01*
X318780Y253180D01*
X316369Y251330D01*
X314520Y248920D01*
X313357Y246112D01*
X312960Y243100D01*
X313357Y240087D01*
X314520Y237280D01*
X316369Y234869D01*
X318780Y233020D01*
X321587Y231857D01*
X324600Y231460D01*
X327612Y231857D01*
X330420Y233020D01*
X332830Y234869D01*
X334680Y237280D01*
X335843Y240087D01*
X336239Y243100D01*
X335843Y246112D01*
X335138Y247813D01*
X380670Y293345D01*
X381563Y294681D01*
X381877Y296257D01*
Y413016D01*
X384081Y413929D01*
X386533Y415810D01*
X387803Y415501D01*
Y223228D01*
X354713Y190138D01*
X353012Y190843D01*
X350000Y191239D01*
X346987Y190843D01*
X344180Y189680D01*
X341769Y187830D01*
X339920Y185420D01*
X338757Y182612D01*
X338360Y179600D01*
X338757Y176587D01*
X339920Y173780D01*
X341769Y171369D01*
X344180Y169520D01*
X346987Y168357D01*
X350000Y167960D01*
X353012Y168357D01*
X355820Y169520D01*
X358230Y171369D01*
X360080Y173780D01*
X361243Y176587D01*
X361639Y179600D01*
X361243Y182612D01*
X360538Y184313D01*
X394835Y218609D01*
X395728Y219946D01*
X396041Y221522D01*
Y434594D01*
X395728Y436170D01*
X394835Y437507D01*
X386803Y445538D01*
X387523Y446615D01*
X388396Y446253D01*
X391670Y445822D01*
X394944Y446253D01*
X397994Y447516D01*
X400503Y449441D01*
X401382Y449266D01*
X401773Y449133D01*
Y211798D01*
X354713Y164738D01*
X353012Y165443D01*
X350000Y165839D01*
X346987Y165443D01*
X344180Y164280D01*
X341769Y162430D01*
X339920Y160020D01*
X338757Y157212D01*
X338360Y154200D01*
X338757Y151187D01*
X339920Y148380D01*
X341769Y145969D01*
X344180Y144120D01*
X346987Y142957D01*
X350000Y142560D01*
X353012Y142957D01*
X355820Y144120D01*
X358230Y145969D01*
X360080Y148380D01*
X361243Y151187D01*
X361639Y154200D01*
X361243Y157212D01*
X360538Y158913D01*
X408805Y207179D01*
X409698Y208516D01*
X410011Y210092D01*
Y492252D01*
X409698Y493828D01*
X408805Y495165D01*
X330065Y573905D01*
X328728Y574798D01*
X327152Y575111D01*
X229914D01*
X194738Y610287D01*
X195443Y611987D01*
X195839Y615000D01*
X195443Y618013D01*
X194280Y620820D01*
X192430Y623231D01*
X190020Y625080D01*
X187212Y626243D01*
X184200Y626640D01*
D02*
G37*
G36*
X182000Y470159D02*
Y462800D01*
X189359D01*
X189295Y463291D01*
X188333Y465611D01*
X186804Y467604D01*
X184811Y469133D01*
X182491Y470095D01*
X182000Y470159D01*
D02*
G37*
G36*
X178000D02*
X177510Y470095D01*
X175189Y469133D01*
X173196Y467604D01*
X171667Y465611D01*
X170706Y463291D01*
X170641Y462800D01*
X178000D01*
Y470159D01*
D02*
G37*
G36*
X106940Y478512D02*
X104450Y478185D01*
X102129Y477223D01*
X100136Y475694D01*
X98607Y473701D01*
X97646Y471381D01*
X97318Y468890D01*
X97646Y466400D01*
X98607Y464079D01*
X100136Y462086D01*
X102129Y460557D01*
X104450Y459596D01*
X106940Y459268D01*
X109431Y459596D01*
X111751Y460557D01*
X113744Y462086D01*
X115273Y464079D01*
X116235Y466400D01*
X116562Y468890D01*
X116235Y471381D01*
X115273Y473701D01*
X113744Y475694D01*
X111751Y477223D01*
X109431Y478185D01*
X106940Y478512D01*
D02*
G37*
G36*
X189359Y458800D02*
X182000D01*
Y451441D01*
X182491Y451506D01*
X184811Y452467D01*
X186804Y453996D01*
X188333Y455989D01*
X189295Y458310D01*
X189359Y458800D01*
D02*
G37*
G36*
X178000D02*
X170641D01*
X170706Y458310D01*
X171667Y455989D01*
X173196Y453996D01*
X175189Y452467D01*
X177510Y451506D01*
X178000Y451441D01*
Y458800D01*
D02*
G37*
G36*
X633190Y449344D02*
Y442490D01*
X640045D01*
X639997Y442850D01*
X639086Y445049D01*
X637637Y446937D01*
X635749Y448386D01*
X633550Y449297D01*
X633190Y449344D01*
D02*
G37*
G36*
X563600Y429359D02*
Y422000D01*
X570959D01*
X570895Y422491D01*
X569933Y424811D01*
X568404Y426804D01*
X566411Y428333D01*
X564090Y429295D01*
X563600Y429359D01*
D02*
G37*
G36*
X559600D02*
X559110Y429295D01*
X556789Y428333D01*
X554796Y426804D01*
X553267Y424811D01*
X552306Y422491D01*
X552241Y422000D01*
X559600D01*
Y429359D01*
D02*
G37*
G36*
X570959Y418000D02*
X563600D01*
Y410641D01*
X564090Y410706D01*
X566411Y411667D01*
X568404Y413196D01*
X569933Y415189D01*
X570895Y417510D01*
X570959Y418000D01*
D02*
G37*
G36*
X559600D02*
X552241D01*
X552306Y417510D01*
X553267Y415189D01*
X554796Y413196D01*
X556789Y411667D01*
X559110Y410706D01*
X559600Y410641D01*
Y418000D01*
D02*
G37*
G36*
X460000Y429622D02*
X457510Y429295D01*
X455189Y428333D01*
X453196Y426804D01*
X451667Y424811D01*
X450706Y422491D01*
X450378Y420000D01*
X450706Y417510D01*
X451667Y415189D01*
X453196Y413196D01*
X455189Y411667D01*
X457510Y410706D01*
X460000Y410378D01*
X462491Y410706D01*
X464811Y411667D01*
X466804Y413196D01*
X468333Y415189D01*
X469295Y417510D01*
X469622Y420000D01*
X469295Y422491D01*
X468333Y424811D01*
X466804Y426804D01*
X464811Y428333D01*
X462491Y429295D01*
X460000Y429622D01*
D02*
G37*
G36*
X678910Y370805D02*
Y363950D01*
X685765D01*
X685717Y364310D01*
X684806Y366509D01*
X683357Y368397D01*
X681469Y369846D01*
X679270Y370757D01*
X678910Y370805D01*
D02*
G37*
G36*
X674910D02*
X674550Y370757D01*
X672351Y369846D01*
X670463Y368397D01*
X669014Y366509D01*
X668103Y364310D01*
X668055Y363950D01*
X674910D01*
Y370805D01*
D02*
G37*
G36*
X600800Y379622D02*
X598310Y379294D01*
X595989Y378333D01*
X593996Y376804D01*
X592467Y374811D01*
X591506Y372490D01*
X591178Y370000D01*
X591506Y367509D01*
X592467Y365189D01*
X593996Y363196D01*
X595989Y361667D01*
X598310Y360705D01*
X600800Y360378D01*
X603290Y360705D01*
X605611Y361667D01*
X607604Y363196D01*
X609133Y365189D01*
X610094Y367509D01*
X610422Y370000D01*
X610094Y372490D01*
X609133Y374811D01*
X607604Y376804D01*
X605611Y378333D01*
X603290Y379294D01*
X600800Y379622D01*
D02*
G37*
G36*
X685765Y359950D02*
X678910D01*
Y353095D01*
X679270Y353143D01*
X681469Y354054D01*
X683357Y355503D01*
X684806Y357391D01*
X685717Y359590D01*
X685765Y359950D01*
D02*
G37*
G36*
X674910D02*
X668055D01*
X668103Y359590D01*
X669014Y357391D01*
X670463Y355503D01*
X672351Y354054D01*
X674550Y353143D01*
X674910Y353095D01*
Y359950D01*
D02*
G37*
G36*
X225000Y368823D02*
X222509Y368495D01*
X220189Y367533D01*
X218196Y366004D01*
X216667Y364011D01*
X215705Y361691D01*
X215378Y359200D01*
X215705Y356710D01*
X216667Y354389D01*
X218196Y352396D01*
X220189Y350867D01*
X222509Y349906D01*
X225000Y349578D01*
X227490Y349906D01*
X229811Y350867D01*
X231804Y352396D01*
X233333Y354389D01*
X234294Y356710D01*
X234622Y359200D01*
X234294Y361691D01*
X233333Y364011D01*
X231804Y366004D01*
X229811Y367533D01*
X227490Y368495D01*
X225000Y368823D01*
D02*
G37*
G36*
X106940Y447512D02*
X104450Y447184D01*
X102129Y446223D01*
X100136Y444694D01*
X98607Y442701D01*
X97646Y440380D01*
X97318Y437890D01*
X97646Y435400D01*
X98607Y433079D01*
X100136Y431086D01*
X102129Y429557D01*
X104450Y428596D01*
X106940Y428268D01*
X109431Y428596D01*
X111751Y429557D01*
X113744Y431086D01*
X115273Y433079D01*
X115560Y433771D01*
X117680D01*
X175881Y375570D01*
Y367820D01*
X175189Y367533D01*
X173196Y366004D01*
X171667Y364011D01*
X170706Y361691D01*
X170378Y359200D01*
X170706Y356710D01*
X171667Y354389D01*
X173196Y352396D01*
X175189Y350867D01*
X177510Y349906D01*
X180000Y349578D01*
X182491Y349906D01*
X184811Y350867D01*
X186804Y352396D01*
X188333Y354389D01*
X189295Y356710D01*
X189622Y359200D01*
X189295Y361691D01*
X188333Y364011D01*
X186804Y366004D01*
X184811Y367533D01*
X184119Y367820D01*
Y377276D01*
X183806Y378852D01*
X182913Y380188D01*
X122299Y440803D01*
X120962Y441696D01*
X119386Y442009D01*
X115560D01*
X115273Y442701D01*
X113744Y444694D01*
X111751Y446223D01*
X109431Y447184D01*
X106940Y447512D01*
D02*
G37*
G36*
X477000Y356339D02*
X473987Y355943D01*
X471180Y354780D01*
X468769Y352930D01*
X466920Y350520D01*
X465757Y347712D01*
X465360Y344700D01*
X465757Y341687D01*
X466920Y338880D01*
X468769Y336469D01*
X471180Y334620D01*
X473987Y333457D01*
X477000Y333060D01*
X480012Y333457D01*
X482820Y334620D01*
X485230Y336469D01*
X487080Y338880D01*
X488243Y341687D01*
X488639Y344700D01*
X488243Y347712D01*
X487080Y350520D01*
X485230Y352930D01*
X482820Y354780D01*
X480012Y355943D01*
X477000Y356339D01*
D02*
G37*
G36*
X324600D02*
X321587Y355943D01*
X318780Y354780D01*
X316369Y352930D01*
X314520Y350520D01*
X313357Y347712D01*
X312960Y344700D01*
X313357Y341687D01*
X314520Y338880D01*
X316369Y336469D01*
X318780Y334620D01*
X321587Y333457D01*
X324600Y333060D01*
X327612Y333457D01*
X330420Y334620D01*
X332830Y336469D01*
X334680Y338880D01*
X335843Y341687D01*
X336239Y344700D01*
X335843Y347712D01*
X334680Y350520D01*
X332830Y352930D01*
X330420Y354780D01*
X327612Y355943D01*
X324600Y356339D01*
D02*
G37*
G36*
X146200Y341376D02*
Y332000D01*
X155576D01*
X155443Y333012D01*
X154280Y335820D01*
X152430Y338230D01*
X150020Y340080D01*
X147212Y341243D01*
X146200Y341376D01*
D02*
G37*
G36*
X142200D02*
X141187Y341243D01*
X138380Y340080D01*
X135969Y338230D01*
X134120Y335820D01*
X132957Y333012D01*
X132824Y332000D01*
X142200D01*
Y341376D01*
D02*
G37*
G36*
X685950Y345590D02*
X667870D01*
Y327510D01*
X685950D01*
Y345590D01*
D02*
G37*
G36*
X155576Y328000D02*
X146200D01*
Y318624D01*
X147212Y318757D01*
X150020Y319920D01*
X152430Y321769D01*
X154280Y324180D01*
X155443Y326987D01*
X155576Y328000D01*
D02*
G37*
G36*
X142200D02*
X132824D01*
X132957Y326987D01*
X134120Y324180D01*
X135969Y321769D01*
X138380Y319920D01*
X141187Y318757D01*
X142200Y318624D01*
Y328000D01*
D02*
G37*
G36*
X195000Y341639D02*
X191987Y341243D01*
X189180Y340080D01*
X186770Y338230D01*
X184920Y335820D01*
X183757Y333012D01*
X183360Y330000D01*
X183757Y326987D01*
X184920Y324180D01*
X186770Y321769D01*
X189180Y319920D01*
X191987Y318757D01*
X195000Y318360D01*
X198012Y318757D01*
X200820Y319920D01*
X203230Y321769D01*
X205080Y324180D01*
X206243Y326987D01*
X206639Y330000D01*
X206243Y333012D01*
X205080Y335820D01*
X203230Y338230D01*
X200820Y340080D01*
X198012Y341243D01*
X195000Y341639D01*
D02*
G37*
G36*
X169600D02*
X166587Y341243D01*
X163780Y340080D01*
X161369Y338230D01*
X159520Y335820D01*
X158357Y333012D01*
X157960Y330000D01*
X158357Y326987D01*
X159520Y324180D01*
X161369Y321769D01*
X163780Y319920D01*
X166587Y318757D01*
X169600Y318360D01*
X172612Y318757D01*
X175420Y319920D01*
X177830Y321769D01*
X179680Y324180D01*
X180843Y326987D01*
X181239Y330000D01*
X180843Y333012D01*
X179680Y335820D01*
X177830Y338230D01*
X175420Y340080D01*
X172612Y341243D01*
X169600Y341639D01*
D02*
G37*
G36*
X133400Y626640D02*
X130387Y626243D01*
X127580Y625080D01*
X125169Y623231D01*
X123320Y620820D01*
X122157Y618013D01*
X121760Y615000D01*
X122157Y611987D01*
X123320Y609180D01*
X125169Y606770D01*
X125795Y606290D01*
Y529500D01*
X74635Y478341D01*
X73450Y478185D01*
X71129Y477223D01*
X69136Y475694D01*
X67607Y473701D01*
X66645Y471381D01*
X66318Y468890D01*
X66645Y466400D01*
X67607Y464079D01*
X68335Y463130D01*
Y443650D01*
X67607Y442701D01*
X66645Y440380D01*
X66318Y437890D01*
X66645Y435400D01*
X67607Y433079D01*
X68335Y432130D01*
Y372860D01*
X68594Y370891D01*
X69354Y369057D01*
X70562Y367482D01*
X107263Y330781D01*
X107160Y330000D01*
X107557Y326987D01*
X108720Y324180D01*
X110569Y321769D01*
X112980Y319920D01*
X115787Y318757D01*
X118800Y318360D01*
X121812Y318757D01*
X124620Y319920D01*
X127030Y321769D01*
X128880Y324180D01*
X130043Y326987D01*
X130439Y330000D01*
X130043Y333012D01*
X128880Y335820D01*
X127030Y338230D01*
X124620Y340080D01*
X121812Y341243D01*
X118800Y341639D01*
X118018Y341536D01*
X83545Y376010D01*
Y432130D01*
X84273Y433079D01*
X85234Y435400D01*
X85562Y437890D01*
X85234Y440380D01*
X84273Y442701D01*
X83545Y443650D01*
Y463130D01*
X84273Y464079D01*
X85234Y466400D01*
X85391Y467585D01*
X138777Y520972D01*
X139986Y522547D01*
X140746Y524382D01*
X141005Y526350D01*
Y606290D01*
X141630Y606770D01*
X143480Y609180D01*
X144643Y611987D01*
X145039Y615000D01*
X144643Y618013D01*
X143480Y620820D01*
X141630Y623231D01*
X139220Y625080D01*
X136412Y626243D01*
X133400Y626640D01*
D02*
G37*
G36*
X358800D02*
X355787Y626243D01*
X352980Y625080D01*
X350569Y623231D01*
X348720Y620820D01*
X347557Y618013D01*
X347160Y615000D01*
X347557Y611987D01*
X348720Y609180D01*
X350569Y606770D01*
X352980Y604920D01*
X355787Y603757D01*
X358800Y603360D01*
X361812Y603757D01*
X363513Y604462D01*
X419553Y548422D01*
Y372628D01*
X419866Y371051D01*
X420759Y369715D01*
X466461Y324013D01*
X465757Y322312D01*
X465360Y319300D01*
X465757Y316287D01*
X466920Y313480D01*
X468769Y311069D01*
X471180Y309220D01*
X473987Y308057D01*
X477000Y307660D01*
X480012Y308057D01*
X482820Y309220D01*
X485230Y311069D01*
X487080Y313480D01*
X488243Y316287D01*
X488639Y319300D01*
X488243Y322312D01*
X487080Y325120D01*
X485230Y327530D01*
X482820Y329380D01*
X480012Y330543D01*
X477000Y330939D01*
X473987Y330543D01*
X472287Y329838D01*
X427791Y374334D01*
Y550128D01*
X427478Y551704D01*
X426585Y553041D01*
X369338Y610287D01*
X370043Y611987D01*
X370439Y615000D01*
X370043Y618013D01*
X368880Y620820D01*
X367030Y623231D01*
X364620Y625080D01*
X361812Y626243D01*
X358800Y626640D01*
D02*
G37*
G36*
X324600Y330939D02*
X321587Y330543D01*
X318780Y329380D01*
X316369Y327530D01*
X314520Y325120D01*
X313357Y322312D01*
X312960Y319300D01*
X313357Y316287D01*
X314520Y313480D01*
X316369Y311069D01*
X318780Y309220D01*
X321587Y308057D01*
X324600Y307660D01*
X327612Y308057D01*
X330420Y309220D01*
X332830Y311069D01*
X334680Y313480D01*
X335843Y316287D01*
X336239Y319300D01*
X335843Y322312D01*
X334680Y325120D01*
X332830Y327530D01*
X330420Y329380D01*
X327612Y330543D01*
X324600Y330939D01*
D02*
G37*
G36*
X477000Y305539D02*
X473987Y305143D01*
X471180Y303980D01*
X468769Y302130D01*
X466920Y299720D01*
X465757Y296912D01*
X465360Y293900D01*
X465757Y290887D01*
X466920Y288080D01*
X468769Y285669D01*
X471180Y283820D01*
X473987Y282657D01*
X477000Y282260D01*
X480012Y282657D01*
X482820Y283820D01*
X485230Y285669D01*
X487080Y288080D01*
X488243Y290887D01*
X488639Y293900D01*
X488243Y296912D01*
X487080Y299720D01*
X485230Y302130D01*
X482820Y303980D01*
X480012Y305143D01*
X477000Y305539D01*
D02*
G37*
G36*
X324600D02*
X321587Y305143D01*
X318780Y303980D01*
X316369Y302130D01*
X314520Y299720D01*
X313357Y296912D01*
X312960Y293900D01*
X313357Y290887D01*
X314520Y288080D01*
X316369Y285669D01*
X318780Y283820D01*
X321587Y282657D01*
X324600Y282260D01*
X327612Y282657D01*
X330420Y283820D01*
X332830Y285669D01*
X334680Y288080D01*
X335843Y290887D01*
X336239Y293900D01*
X335843Y296912D01*
X334680Y299720D01*
X332830Y302130D01*
X330420Y303980D01*
X327612Y305143D01*
X324600Y305539D01*
D02*
G37*
G36*
X499200Y379622D02*
X496710Y379294D01*
X494389Y378333D01*
X492396Y376804D01*
X490867Y374811D01*
X489906Y372490D01*
X489578Y370000D01*
X489906Y367509D01*
X490867Y365189D01*
X492396Y363196D01*
X494389Y361667D01*
X495081Y361380D01*
Y292406D01*
X481713Y279038D01*
X480012Y279743D01*
X477000Y280139D01*
X473987Y279743D01*
X471180Y278580D01*
X468769Y276730D01*
X466920Y274320D01*
X465757Y271512D01*
X465360Y268500D01*
X465757Y265487D01*
X466920Y262680D01*
X468769Y260269D01*
X471180Y258420D01*
X473987Y257257D01*
X477000Y256860D01*
X480012Y257257D01*
X482820Y258420D01*
X485230Y260269D01*
X487080Y262680D01*
X488243Y265487D01*
X488639Y268500D01*
X488243Y271512D01*
X487538Y273213D01*
X502113Y287787D01*
X503005Y289124D01*
X503319Y290700D01*
Y361380D01*
X504011Y361667D01*
X506004Y363196D01*
X507533Y365189D01*
X508494Y367509D01*
X508822Y370000D01*
X508494Y372490D01*
X507533Y374811D01*
X506004Y376804D01*
X504011Y378333D01*
X501690Y379294D01*
X499200Y379622D01*
D02*
G37*
G36*
X324600Y280139D02*
X321587Y279743D01*
X318780Y278580D01*
X316369Y276730D01*
X314520Y274320D01*
X313357Y271512D01*
X312960Y268500D01*
X313357Y265487D01*
X314520Y262680D01*
X316369Y260269D01*
X318780Y258420D01*
X321587Y257257D01*
X324600Y256860D01*
X327612Y257257D01*
X330420Y258420D01*
X332830Y260269D01*
X334680Y262680D01*
X335843Y265487D01*
X336239Y268500D01*
X335843Y271512D01*
X334680Y274320D01*
X332830Y276730D01*
X330420Y278580D01*
X327612Y279743D01*
X324600Y280139D01*
D02*
G37*
G36*
X477000Y254739D02*
X473987Y254343D01*
X471180Y253180D01*
X468769Y251330D01*
X466920Y248920D01*
X465757Y246112D01*
X465360Y243100D01*
X465757Y240087D01*
X466920Y237280D01*
X468769Y234869D01*
X471180Y233020D01*
X473987Y231857D01*
X477000Y231460D01*
X480012Y231857D01*
X482820Y233020D01*
X485230Y234869D01*
X487080Y237280D01*
X488243Y240087D01*
X488639Y243100D01*
X488243Y246112D01*
X487080Y248920D01*
X485230Y251330D01*
X482820Y253180D01*
X480012Y254343D01*
X477000Y254739D01*
D02*
G37*
G36*
Y229339D02*
X473987Y228943D01*
X471180Y227780D01*
X468769Y225930D01*
X466920Y223520D01*
X465757Y220712D01*
X465360Y217700D01*
X465757Y214687D01*
X466920Y211880D01*
X468769Y209469D01*
X471180Y207620D01*
X473987Y206457D01*
X477000Y206060D01*
X480012Y206457D01*
X482820Y207620D01*
X485230Y209469D01*
X487080Y211880D01*
X488243Y214687D01*
X488639Y217700D01*
X488243Y220712D01*
X487080Y223520D01*
X485230Y225930D01*
X482820Y227780D01*
X480012Y228943D01*
X477000Y229339D01*
D02*
G37*
G36*
X324600D02*
X321587Y228943D01*
X318780Y227780D01*
X316369Y225930D01*
X314520Y223520D01*
X313357Y220712D01*
X312960Y217700D01*
X313357Y214687D01*
X314520Y211880D01*
X316369Y209469D01*
X318780Y207620D01*
X321587Y206457D01*
X324600Y206060D01*
X327612Y206457D01*
X330420Y207620D01*
X332830Y209469D01*
X334680Y211880D01*
X335843Y214687D01*
X336239Y217700D01*
X335843Y220712D01*
X334680Y223520D01*
X332830Y225930D01*
X330420Y227780D01*
X327612Y228943D01*
X324600Y229339D01*
D02*
G37*
G36*
X477000Y203939D02*
X473987Y203543D01*
X471180Y202380D01*
X468769Y200530D01*
X466920Y198120D01*
X465757Y195312D01*
X465360Y192300D01*
X465757Y189287D01*
X466920Y186480D01*
X468769Y184069D01*
X471180Y182220D01*
X473987Y181057D01*
X477000Y180660D01*
X480012Y181057D01*
X482820Y182220D01*
X485230Y184069D01*
X487080Y186480D01*
X488243Y189287D01*
X488639Y192300D01*
X488243Y195312D01*
X487080Y198120D01*
X485230Y200530D01*
X482820Y202380D01*
X480012Y203543D01*
X477000Y203939D01*
D02*
G37*
G36*
X324600D02*
X321587Y203543D01*
X318780Y202380D01*
X316369Y200530D01*
X314520Y198120D01*
X313357Y195312D01*
X312960Y192300D01*
X313357Y189287D01*
X314520Y186480D01*
X316369Y184069D01*
X318780Y182220D01*
X321587Y181057D01*
X324600Y180660D01*
X327612Y181057D01*
X330420Y182220D01*
X332830Y184069D01*
X334680Y186480D01*
X335843Y189287D01*
X336239Y192300D01*
X335843Y195312D01*
X334680Y198120D01*
X332830Y200530D01*
X330420Y202380D01*
X327612Y203543D01*
X324600Y203939D01*
D02*
G37*
G36*
X477000Y178539D02*
X473987Y178143D01*
X471180Y176980D01*
X468769Y175130D01*
X466920Y172720D01*
X465757Y169912D01*
X465360Y166900D01*
X465757Y163887D01*
X466920Y161080D01*
X468769Y158669D01*
X471180Y156820D01*
X473987Y155657D01*
X477000Y155260D01*
X480012Y155657D01*
X482820Y156820D01*
X485230Y158669D01*
X487080Y161080D01*
X488243Y163887D01*
X488639Y166900D01*
X488243Y169912D01*
X487080Y172720D01*
X485230Y175130D01*
X482820Y176980D01*
X480012Y178143D01*
X477000Y178539D01*
D02*
G37*
G36*
X806000Y163614D02*
X794000D01*
X791770Y163320D01*
X789693Y162460D01*
X787909Y161091D01*
X786540Y159307D01*
X785680Y157229D01*
X785386Y155000D01*
X785680Y152771D01*
X786540Y150693D01*
X787909Y148909D01*
X789693Y147540D01*
X791770Y146680D01*
X794000Y146386D01*
X806000D01*
X808229Y146680D01*
X810307Y147540D01*
X812091Y148909D01*
X813460Y150693D01*
X814320Y152771D01*
X814614Y155000D01*
X814320Y157229D01*
X813460Y159307D01*
X812091Y161091D01*
X810307Y162460D01*
X808229Y163320D01*
X806000Y163614D01*
D02*
G37*
G36*
X785000Y295113D02*
X782052Y294822D01*
X779217Y293962D01*
X776604Y292566D01*
X774314Y290686D01*
X772434Y288396D01*
X771038Y285783D01*
X770178Y282948D01*
X769887Y280000D01*
X770178Y277052D01*
X771038Y274216D01*
X772434Y271604D01*
X774314Y269314D01*
X776604Y267434D01*
X779217Y266038D01*
X780450Y265664D01*
Y264336D01*
X779217Y263962D01*
X776604Y262566D01*
X774314Y260686D01*
X772434Y258396D01*
X771038Y255783D01*
X770178Y252948D01*
X769887Y250000D01*
X770178Y247052D01*
X771038Y244217D01*
X772434Y241604D01*
X774314Y239314D01*
X776604Y237434D01*
X779217Y236038D01*
X780450Y235664D01*
Y234336D01*
X779217Y233962D01*
X776604Y232566D01*
X774314Y230686D01*
X772434Y228396D01*
X771038Y225784D01*
X770178Y222948D01*
X769887Y220000D01*
X770178Y217052D01*
X771038Y214217D01*
X772434Y211604D01*
X774314Y209314D01*
X776386Y207613D01*
Y185318D01*
X776212Y185144D01*
X736600D01*
X734371Y184850D01*
X732293Y183990D01*
X730509Y182621D01*
X722635Y174747D01*
X721266Y172963D01*
X720762Y171746D01*
X720406Y170885D01*
X720112Y168656D01*
Y109674D01*
X720406Y107445D01*
X720762Y106584D01*
X721266Y105367D01*
X722635Y103583D01*
X730509Y95709D01*
X732293Y94340D01*
X734371Y93480D01*
X736600Y93187D01*
X749500D01*
X751730Y93480D01*
X753807Y94340D01*
X755591Y95709D01*
X756960Y97493D01*
X757820Y99571D01*
X757996Y100904D01*
X759334Y101722D01*
X759350Y101722D01*
X761500Y101439D01*
X763664Y101723D01*
X765681Y102559D01*
X767413Y103888D01*
X768741Y105619D01*
X769577Y107636D01*
X769862Y109800D01*
X769577Y111964D01*
X768741Y113981D01*
X767413Y115713D01*
X765681Y117041D01*
X765382Y117165D01*
Y118435D01*
X765681Y118559D01*
X767413Y119888D01*
X768741Y121619D01*
X769577Y123636D01*
X769862Y125800D01*
X769577Y127964D01*
X768741Y129981D01*
X767413Y131713D01*
X765681Y133041D01*
X763664Y133877D01*
X761500Y134162D01*
X759336Y133877D01*
X759067Y133765D01*
X757757Y134597D01*
X757577Y135964D01*
X756741Y137981D01*
X755413Y139713D01*
X753681Y141041D01*
X751664Y141877D01*
X751500Y141898D01*
Y133800D01*
X749500D01*
Y131800D01*
X741402D01*
X741423Y131636D01*
X742259Y129619D01*
X743588Y127888D01*
X745319Y126559D01*
X745618Y126435D01*
Y125165D01*
X745319Y125041D01*
X743588Y123713D01*
X742259Y121981D01*
X741423Y119964D01*
X741139Y117800D01*
X741423Y115636D01*
X742259Y113619D01*
X743588Y111888D01*
X743853Y111684D01*
X743422Y110414D01*
X740168D01*
X737340Y113242D01*
Y151480D01*
X738610Y151733D01*
X739040Y150693D01*
X740409Y148909D01*
X742193Y147540D01*
X744270Y146680D01*
X746500Y146386D01*
X758500D01*
X760729Y146680D01*
X762807Y147540D01*
X764591Y148909D01*
X765960Y150693D01*
X766820Y152771D01*
X767114Y155000D01*
X766820Y157229D01*
X765960Y159307D01*
X764591Y161091D01*
X762807Y162460D01*
X760729Y163320D01*
X758500Y163614D01*
X746500D01*
X744270Y163320D01*
X742193Y162460D01*
X740409Y161091D01*
X739040Y159307D01*
X738610Y158267D01*
X737340Y158520D01*
Y165088D01*
X740168Y167916D01*
X779780D01*
X782009Y168210D01*
X782870Y168566D01*
X784087Y169070D01*
X785871Y170439D01*
X791091Y175659D01*
X792460Y177443D01*
X793320Y179521D01*
X793614Y181750D01*
Y207613D01*
X795686Y209314D01*
X797566Y211604D01*
X798963Y214217D01*
X799823Y217052D01*
X800113Y220000D01*
X799823Y222948D01*
X798963Y225784D01*
X797566Y228396D01*
X795686Y230686D01*
X793396Y232566D01*
X790784Y233962D01*
X789551Y234336D01*
Y235664D01*
X790784Y236038D01*
X793396Y237434D01*
X795686Y239314D01*
X797566Y241604D01*
X798963Y244217D01*
X799823Y247052D01*
X800113Y250000D01*
X799823Y252948D01*
X798963Y255783D01*
X797566Y258396D01*
X795686Y260686D01*
X793396Y262566D01*
X790784Y263962D01*
X789551Y264336D01*
Y265664D01*
X790784Y266038D01*
X793396Y267434D01*
X795686Y269314D01*
X797566Y271604D01*
X798963Y274216D01*
X799823Y277052D01*
X800113Y280000D01*
X799823Y282948D01*
X798963Y285783D01*
X797566Y288396D01*
X795686Y290686D01*
X793396Y292566D01*
X790784Y293962D01*
X787949Y294822D01*
X785000Y295113D01*
D02*
G37*
G36*
X479000Y152876D02*
Y143500D01*
X488376D01*
X488243Y144512D01*
X487080Y147320D01*
X485230Y149730D01*
X482820Y151580D01*
X480012Y152743D01*
X479000Y152876D01*
D02*
G37*
G36*
X475000D02*
X473987Y152743D01*
X471180Y151580D01*
X468769Y149730D01*
X466920Y147320D01*
X465757Y144512D01*
X465624Y143500D01*
X475000D01*
Y152876D01*
D02*
G37*
G36*
X747500Y141898D02*
X747336Y141877D01*
X745319Y141041D01*
X743588Y139713D01*
X742259Y137981D01*
X741423Y135964D01*
X741402Y135800D01*
X747500D01*
Y141898D01*
D02*
G37*
G36*
X488376Y139500D02*
X479000D01*
Y130124D01*
X480012Y130257D01*
X482820Y131420D01*
X485230Y133269D01*
X487080Y135680D01*
X488243Y138487D01*
X488376Y139500D01*
D02*
G37*
G36*
X475000D02*
X465624D01*
X465757Y138487D01*
X466920Y135680D01*
X468769Y133269D01*
X471180Y131420D01*
X473987Y130257D01*
X475000Y130124D01*
Y139500D01*
D02*
G37*
G36*
X477000Y127739D02*
X473987Y127343D01*
X471180Y126180D01*
X468769Y124330D01*
X466920Y121920D01*
X465757Y119112D01*
X465360Y116100D01*
X465757Y113087D01*
X466920Y110280D01*
X468769Y107869D01*
X471180Y106020D01*
X473987Y104857D01*
X477000Y104460D01*
X480012Y104857D01*
X482820Y106020D01*
X485230Y107869D01*
X487080Y110280D01*
X488243Y113087D01*
X488639Y116100D01*
X488243Y119112D01*
X487080Y121920D01*
X485230Y124330D01*
X482820Y126180D01*
X480012Y127343D01*
X477000Y127739D01*
D02*
G37*
G36*
X326600Y102076D02*
Y92700D01*
X335976D01*
X335843Y93712D01*
X334680Y96520D01*
X332830Y98930D01*
X330420Y100780D01*
X327612Y101943D01*
X326600Y102076D01*
D02*
G37*
G36*
X322600D02*
X321587Y101943D01*
X318780Y100780D01*
X316369Y98930D01*
X314520Y96520D01*
X313357Y93712D01*
X313224Y92700D01*
X322600D01*
Y102076D01*
D02*
G37*
G36*
X335976Y88700D02*
X326600D01*
Y79324D01*
X327612Y79457D01*
X330420Y80620D01*
X332830Y82469D01*
X334680Y84880D01*
X335843Y87687D01*
X335976Y88700D01*
D02*
G37*
G36*
X322600D02*
X313224D01*
X313357Y87687D01*
X314520Y84880D01*
X316369Y82469D01*
X318780Y80620D01*
X321587Y79457D01*
X322600Y79324D01*
Y88700D01*
D02*
G37*
G36*
X806000Y89213D02*
X794000D01*
X791770Y88920D01*
X789693Y88059D01*
X787909Y86691D01*
X786540Y84907D01*
X785680Y82829D01*
X785386Y80600D01*
X785680Y78370D01*
X786540Y76293D01*
X787909Y74509D01*
X789693Y73140D01*
X791770Y72280D01*
X794000Y71986D01*
X806000D01*
X808229Y72280D01*
X810307Y73140D01*
X812091Y74509D01*
X813460Y76293D01*
X814320Y78370D01*
X814614Y80600D01*
X814320Y82829D01*
X813460Y84907D01*
X812091Y86691D01*
X810307Y88059D01*
X808229Y88920D01*
X806000Y89213D01*
D02*
G37*
G36*
X758500D02*
X746500D01*
X744270Y88920D01*
X742193Y88059D01*
X740409Y86691D01*
X739040Y84907D01*
X738180Y82829D01*
X737886Y80600D01*
X738180Y78370D01*
X739040Y76293D01*
X740409Y74509D01*
X742193Y73140D01*
X744270Y72280D01*
X746500Y71986D01*
X758500D01*
X760729Y72280D01*
X762807Y73140D01*
X764591Y74509D01*
X765960Y76293D01*
X766820Y78370D01*
X767114Y80600D01*
X766820Y82829D01*
X765960Y84907D01*
X764591Y86691D01*
X762807Y88059D01*
X760729Y88920D01*
X758500Y89213D01*
D02*
G37*
G36*
X324600Y76939D02*
X321587Y76543D01*
X318780Y75380D01*
X316369Y73530D01*
X314520Y71120D01*
X313357Y68312D01*
X312960Y65300D01*
X313357Y62287D01*
X314520Y59480D01*
X316369Y57069D01*
X318780Y55220D01*
X321587Y54057D01*
X324600Y53660D01*
X327612Y54057D01*
X330420Y55220D01*
X332830Y57069D01*
X334680Y59480D01*
X335843Y62287D01*
X336239Y65300D01*
X335843Y68312D01*
X334680Y71120D01*
X332830Y73530D01*
X330420Y75380D01*
X327612Y76543D01*
X324600Y76939D01*
D02*
G37*
G36*
X662000Y46376D02*
Y37000D01*
X671376D01*
X671243Y38013D01*
X670080Y40820D01*
X668231Y43231D01*
X665820Y45080D01*
X663013Y46243D01*
X662000Y46376D01*
D02*
G37*
G36*
X658000D02*
X656988Y46243D01*
X654180Y45080D01*
X651770Y43231D01*
X649920Y40820D01*
X648757Y38013D01*
X648624Y37000D01*
X658000D01*
Y46376D01*
D02*
G37*
G36*
X220400Y49539D02*
X217387Y49143D01*
X214580Y47980D01*
X212169Y46130D01*
X210320Y43720D01*
X209157Y40912D01*
X208760Y37900D01*
X209157Y34887D01*
X210320Y32080D01*
X212169Y29669D01*
X214580Y27820D01*
X217387Y26657D01*
X220400Y26260D01*
X223412Y26657D01*
X226220Y27820D01*
X228630Y29669D01*
X230480Y32080D01*
X231643Y34887D01*
X232039Y37900D01*
X231643Y40912D01*
X230480Y43720D01*
X228630Y46130D01*
X226220Y47980D01*
X223412Y49143D01*
X220400Y49539D01*
D02*
G37*
G36*
X195000D02*
X191987Y49143D01*
X189180Y47980D01*
X186770Y46130D01*
X184920Y43720D01*
X183757Y40912D01*
X183360Y37900D01*
X183757Y34887D01*
X184920Y32080D01*
X186770Y29669D01*
X189180Y27820D01*
X191987Y26657D01*
X195000Y26260D01*
X198012Y26657D01*
X200820Y27820D01*
X203230Y29669D01*
X205080Y32080D01*
X206243Y34887D01*
X206639Y37900D01*
X206243Y40912D01*
X205080Y43720D01*
X203230Y46130D01*
X200820Y47980D01*
X198012Y49143D01*
X195000Y49539D01*
D02*
G37*
G36*
X169600D02*
X166587Y49143D01*
X163780Y47980D01*
X161369Y46130D01*
X159520Y43720D01*
X158357Y40912D01*
X157960Y37900D01*
X158357Y34887D01*
X159520Y32080D01*
X161369Y29669D01*
X163780Y27820D01*
X166587Y26657D01*
X169600Y26260D01*
X172612Y26657D01*
X175420Y27820D01*
X177830Y29669D01*
X179680Y32080D01*
X180843Y34887D01*
X181239Y37900D01*
X180843Y40912D01*
X179680Y43720D01*
X177830Y46130D01*
X175420Y47980D01*
X172612Y49143D01*
X169600Y49539D01*
D02*
G37*
G36*
X144200D02*
X141187Y49143D01*
X138380Y47980D01*
X135969Y46130D01*
X134120Y43720D01*
X132957Y40912D01*
X132560Y37900D01*
X132957Y34887D01*
X134120Y32080D01*
X135969Y29669D01*
X138380Y27820D01*
X141187Y26657D01*
X144200Y26260D01*
X147212Y26657D01*
X150020Y27820D01*
X152430Y29669D01*
X154280Y32080D01*
X155443Y34887D01*
X155839Y37900D01*
X155443Y40912D01*
X154280Y43720D01*
X152430Y46130D01*
X150020Y47980D01*
X147212Y49143D01*
X144200Y49539D01*
D02*
G37*
G36*
X118800D02*
X115787Y49143D01*
X112980Y47980D01*
X110569Y46130D01*
X108720Y43720D01*
X107557Y40912D01*
X107160Y37900D01*
X107557Y34887D01*
X108720Y32080D01*
X110569Y29669D01*
X112980Y27820D01*
X115787Y26657D01*
X118800Y26260D01*
X121812Y26657D01*
X124620Y27820D01*
X127030Y29669D01*
X128880Y32080D01*
X130043Y34887D01*
X130439Y37900D01*
X130043Y40912D01*
X128880Y43720D01*
X127030Y46130D01*
X124620Y47980D01*
X121812Y49143D01*
X118800Y49539D01*
D02*
G37*
G36*
X671376Y33000D02*
X662000D01*
Y23624D01*
X663013Y23757D01*
X665820Y24920D01*
X668231Y26770D01*
X670080Y29180D01*
X671243Y31988D01*
X671376Y33000D01*
D02*
G37*
G36*
X658000D02*
X648624D01*
X648757Y31988D01*
X649920Y29180D01*
X651770Y26770D01*
X654180Y24920D01*
X656988Y23757D01*
X658000Y23624D01*
Y33000D01*
D02*
G37*
G36*
X634600Y46640D02*
X631588Y46243D01*
X628780Y45080D01*
X626370Y43231D01*
X624520Y40820D01*
X623357Y38013D01*
X622961Y35000D01*
X623357Y31988D01*
X624520Y29180D01*
X626370Y26770D01*
X628780Y24920D01*
X631588Y23757D01*
X634600Y23361D01*
X637613Y23757D01*
X640420Y24920D01*
X642831Y26770D01*
X644680Y29180D01*
X645843Y31988D01*
X646240Y35000D01*
X645843Y38013D01*
X644680Y40820D01*
X642831Y43231D01*
X640420Y45080D01*
X637613Y46243D01*
X634600Y46640D01*
D02*
G37*
G36*
X609200D02*
X606188Y46243D01*
X603380Y45080D01*
X600970Y43231D01*
X599120Y40820D01*
X597957Y38013D01*
X597561Y35000D01*
X597957Y31988D01*
X599120Y29180D01*
X600970Y26770D01*
X603380Y24920D01*
X606188Y23757D01*
X609200Y23361D01*
X612213Y23757D01*
X615020Y24920D01*
X617431Y26770D01*
X619280Y29180D01*
X620443Y31988D01*
X620840Y35000D01*
X620443Y38013D01*
X619280Y40820D01*
X617431Y43231D01*
X615020Y45080D01*
X612213Y46243D01*
X609200Y46640D01*
D02*
G37*
G36*
X810000Y62625D02*
X805678Y62285D01*
X801463Y61273D01*
X797458Y59614D01*
X793762Y57349D01*
X790466Y54534D01*
X787651Y51238D01*
X785386Y47542D01*
X783727Y43537D01*
X782715Y39322D01*
X782375Y35000D01*
X782715Y30679D01*
X783727Y26463D01*
X785386Y22459D01*
X787651Y18763D01*
X790466Y15466D01*
X793762Y12651D01*
X797458Y10386D01*
X801463Y8727D01*
X805678Y7715D01*
X810000Y7375D01*
X814321Y7715D01*
X818537Y8727D01*
X822542Y10386D01*
X826238Y12651D01*
X829534Y15466D01*
X832349Y18763D01*
X834614Y22459D01*
X836273Y26463D01*
X837285Y30679D01*
X837625Y35000D01*
X837285Y39322D01*
X836273Y43537D01*
X834614Y47542D01*
X832349Y51238D01*
X829534Y54534D01*
X826238Y57349D01*
X822542Y59614D01*
X818537Y61273D01*
X814321Y62285D01*
X810000Y62625D01*
D02*
G37*
G36*
X35000D02*
X30679Y62285D01*
X26463Y61273D01*
X22459Y59614D01*
X18763Y57349D01*
X15466Y54534D01*
X12651Y51238D01*
X10386Y47542D01*
X8727Y43537D01*
X7715Y39322D01*
X7375Y35000D01*
X7715Y30679D01*
X8727Y26463D01*
X10386Y22459D01*
X12651Y18763D01*
X15466Y15466D01*
X18763Y12651D01*
X22459Y10386D01*
X26463Y8727D01*
X30679Y7715D01*
X35000Y7375D01*
X39322Y7715D01*
X43537Y8727D01*
X47542Y10386D01*
X51238Y12651D01*
X54534Y15466D01*
X57349Y18763D01*
X59614Y22459D01*
X61273Y26463D01*
X62285Y30679D01*
X62625Y35000D01*
X62285Y39322D01*
X61273Y43537D01*
X59614Y47542D01*
X57349Y51238D01*
X54534Y54534D01*
X51238Y57349D01*
X47542Y59614D01*
X43537Y61273D01*
X39322Y62285D01*
X35000Y62625D01*
D02*
G37*
%LPD*%
D28*
X477000Y65300D02*
X515000Y103300D01*
Y549600D02*
X535400Y570000D01*
X515000Y103300D02*
Y549600D01*
X560800Y570000D02*
X580800Y590000D01*
X535400Y570000D02*
X560800D01*
X180000Y359200D02*
Y377276D01*
X119386Y437890D02*
X180000Y377276D01*
X106940Y437890D02*
X119386D01*
X184200Y615000D02*
X228208Y570992D01*
X327152D01*
X405892Y492252D01*
Y210092D02*
Y492252D01*
X350000Y154200D02*
X405892Y210092D01*
X477000Y268500D02*
X499200Y290700D01*
Y370000D01*
X358800Y615000D02*
X423672Y550128D01*
Y372628D02*
Y550128D01*
Y372628D02*
X477000Y319300D01*
X658444Y611200D02*
X750000D01*
X617474Y570230D02*
X658444Y611200D01*
X617474Y134112D02*
Y570230D01*
X523262Y39900D02*
X617474Y134112D01*
X464300Y39900D02*
X523262D01*
X451104Y64804D02*
X477000Y90700D01*
X451104Y31750D02*
Y64804D01*
Y31750D02*
X458216Y24638D01*
X525526D01*
X688340Y187452D01*
Y263340D01*
X785000Y360000D01*
X350000Y179600D02*
X391922Y221522D01*
Y434594D01*
X277114Y549402D02*
X391922Y434594D01*
X224398Y549402D02*
X277114D01*
X158800Y615000D02*
X224398Y549402D01*
X192700Y493100D02*
Y510000D01*
Y493100D02*
X225000Y460800D01*
X377757Y296257D02*
Y424883D01*
X324600Y243100D02*
X377757Y296257D01*
X785000Y360000D02*
X801624Y376624D01*
Y508776D01*
X750000Y560400D02*
X801624Y508776D01*
X540800Y519020D02*
Y535000D01*
Y519020D02*
X544200Y515620D01*
Y500000D02*
Y515620D01*
D29*
X736600Y176530D02*
X779780D01*
X728726Y168656D02*
X736600Y176530D01*
X728726Y109674D02*
X736600Y101800D01*
X728726Y109674D02*
Y168656D01*
X736600Y101800D02*
X749500D01*
X785000Y181750D02*
Y220000D01*
X779780Y176530D02*
X785000Y181750D01*
D30*
Y220000D02*
X785114Y220114D01*
X290000Y106900D02*
X324600Y141500D01*
X290000Y60000D02*
Y106900D01*
Y60000D02*
X335000Y15000D01*
X563800D02*
X583800Y35000D01*
X335000Y15000D02*
X563800D01*
X289433Y451233D02*
X292862Y447804D01*
X630800Y325000D02*
Y356480D01*
X631190Y356870D01*
Y415490D01*
X651256Y435556D01*
Y436256D01*
X750000Y535000D01*
X785000Y250000D02*
X785114Y249886D01*
X75940Y437890D02*
Y468890D01*
Y372860D02*
X118800Y330000D01*
X75940Y372860D02*
Y437890D01*
X133400Y526350D02*
Y615000D01*
X75940Y468890D02*
X133400Y526350D01*
X296670Y478145D02*
X310583Y492057D01*
X296670Y458470D02*
Y478145D01*
X289433Y451233D02*
X296670Y458470D01*
X292862Y173238D02*
Y447804D01*
Y173238D02*
X324600Y141500D01*
D31*
X580800Y590000D02*
D03*
X555400D02*
D03*
X606200D02*
D03*
X530000D02*
D03*
X350000Y179600D02*
D03*
Y154200D02*
D03*
X464300Y39900D02*
D03*
X324600Y217700D02*
D03*
Y192300D02*
D03*
Y166900D02*
D03*
Y141500D02*
D03*
Y116100D02*
D03*
Y90700D02*
D03*
Y65300D02*
D03*
Y243100D02*
D03*
Y293900D02*
D03*
Y319300D02*
D03*
Y344700D02*
D03*
X477000Y243100D02*
D03*
Y217700D02*
D03*
Y192300D02*
D03*
Y166900D02*
D03*
Y141500D02*
D03*
Y116100D02*
D03*
Y90700D02*
D03*
Y65300D02*
D03*
Y268500D02*
D03*
Y293900D02*
D03*
Y319300D02*
D03*
Y344700D02*
D03*
X324600Y268500D02*
D03*
X118800Y330000D02*
D03*
X195000D02*
D03*
X169600D02*
D03*
X144200D02*
D03*
X169600Y37900D02*
D03*
X118800D02*
D03*
X144200D02*
D03*
X195000D02*
D03*
X220400D02*
D03*
X750000Y611200D02*
D03*
Y585800D02*
D03*
Y560400D02*
D03*
Y535000D02*
D03*
Y509600D02*
D03*
Y484200D02*
D03*
X634600Y35000D02*
D03*
X583800D02*
D03*
X609200D02*
D03*
X660000D02*
D03*
X333400Y615000D02*
D03*
X358800D02*
D03*
X384200D02*
D03*
X409600D02*
D03*
X435000D02*
D03*
X460400D02*
D03*
X108000D02*
D03*
X133400D02*
D03*
X158800D02*
D03*
X184200D02*
D03*
X209600D02*
D03*
X235000D02*
D03*
D32*
X180000Y510000D02*
D03*
X192700D02*
D03*
X477300Y480000D02*
D03*
X490000D02*
D03*
D33*
X785000Y360000D02*
D03*
Y390000D02*
D03*
Y420000D02*
D03*
Y280000D02*
D03*
Y250000D02*
D03*
Y220000D02*
D03*
D34*
X391670Y458470D02*
D03*
X377757Y492057D02*
D03*
X310583D02*
D03*
X296670Y458470D02*
D03*
X310583Y424883D02*
D03*
X377757D02*
D03*
D35*
X749500Y133800D02*
D03*
Y117800D02*
D03*
Y101800D02*
D03*
X761500Y125800D02*
D03*
Y109800D02*
D03*
D36*
X800000Y155000D02*
D03*
Y80600D02*
D03*
X752500Y155000D02*
D03*
Y80600D02*
D03*
D37*
X631190Y440490D02*
D03*
X676910Y361950D02*
D03*
D38*
X631190Y415490D02*
D03*
X676910Y336550D02*
D03*
D39*
X540800Y535000D02*
D03*
X439200D02*
D03*
X75940Y468890D02*
D03*
X106940D02*
D03*
Y437890D02*
D03*
X75940D02*
D03*
X600800Y370000D02*
D03*
X499200D02*
D03*
X630800Y325000D02*
D03*
X529200D02*
D03*
X561600Y420000D02*
D03*
X460000D02*
D03*
X180000Y460800D02*
D03*
Y359200D02*
D03*
X225000Y460800D02*
D03*
Y359200D02*
D03*
X645800Y500000D02*
D03*
X544200D02*
D03*
D40*
X205400Y510000D02*
D03*
X502700Y480000D02*
D03*
D41*
X35000Y570000D02*
D03*
X660000Y560000D02*
D03*
X810000Y35000D02*
D03*
X35000D02*
D03*
M02*
