M48
;Layer_Color=9474304
;FILE_FORMAT=4:4
METRIC,TZ
;TYPE=PLATED
T1F00S00C0.7000
T2F00S00C0.8000
T4F00S00C0.8500
T5F00S00C1.0000
T6F00S00C1.2000
T7F00S00C1.7500
T8F00S00C3.2000
%
T01
X749500Y101800
Y117800
Y133800
X761500Y125800
Y109800
X502700Y480000
X490000
X477300
X205400Y510000
X192700
X180000
X106940Y468890
X75940
Y437890
X106940
T02
X676910Y336550
Y361950
X631190Y415490
Y440490
T04
X180000Y359200
X225000
X499200Y370000
X529200Y325000
X630800
X600800Y370000
X561600Y420000
X544200Y500000
X540800Y535000
X439200
X460000Y420000
X645800Y500000
X225000Y460800
X180000
T05
X118800Y37900
X144200
X169600
X195000
X220400
X324600Y65300
Y90700
Y116100
Y141500
Y166900
Y192300
Y217700
Y243100
Y268500
Y293900
Y319300
Y344700
X195000Y330000
X169600
X144200
X118800
X350000Y179600
Y154200
X477000Y166900
Y192300
Y217700
Y243100
Y268500
Y293900
Y319300
Y344700
Y141500
Y116100
Y90700
Y65300
X464300Y39900
X583800Y35000
X609200
X634600
X660000
X750000Y484200
Y509600
Y535000
Y560400
Y585800
Y611200
X606200Y590000
X580800
X555400
X530000
X460400Y615000
X435000
X409600
X384200
X358800
X333400
X235000
X209600
X184200
X158800
X133400
X108000
T06
X310583Y424883
X296670Y458470
X310583Y492057
X377757
X391670Y458470
X377757Y424883
T07
X785000Y220000
Y250000
Y280000
Y360000
Y390000
Y420000
T08
X35000Y35000
X810000
X660000Y560000
X35000Y570000
M30
